<svg width="1506" height="1063" viewBox="0 0 1506 1063" fill="none" xmlns="http://www.w3.org/2000/svg">
<path d="M44.95 943V910.8H87.3V813.15C87.3 805.45 83.5667 801.6 76.1 801.6H48.45V769.4H90.1C99.6667 769.4 107.483 772.2 113.55 777.8C119.617 783.167 122.65 790.75 122.65 800.55V804.75H124.4C126.967 791.683 132.45 781.883 140.85 775.35C149.483 768.583 161.967 765.2 178.3 765.2H205.25V804.4H167.45C153.683 804.4 143.067 809.183 135.6 818.75C128.133 828.317 124.4 839.75 124.4 853.05V910.8H178.3V943H44.95ZM334.963 947.2C318.163 947.2 303.347 943.467 290.513 936C277.68 928.3 267.647 917.683 260.413 904.15C253.18 890.617 249.563 874.867 249.563 856.9C249.563 838.7 253.063 822.717 260.063 808.95C267.297 795.183 277.33 784.45 290.163 776.75C303.23 769.05 318.28 765.2 335.313 765.2C352.113 765.2 366.58 769.05 378.713 776.75C390.847 784.217 400.18 794.25 406.713 806.85C413.48 819.45 416.863 833.333 416.863 848.5C416.863 850.833 416.863 853.4 416.863 856.2C416.863 858.767 416.747 861.683 416.513 864.95H285.963C287.13 881.05 292.38 893.3 301.713 901.7C311.047 909.867 322.013 913.95 334.613 913.95C345.58 913.95 354.213 911.733 360.513 907.3C367.047 902.633 371.83 896.333 374.863 888.4H412.313C408.113 904.967 399.363 918.967 386.063 930.4C372.763 941.6 355.73 947.2 334.963 947.2ZM334.963 797.4C323.53 797.4 313.38 800.9 304.513 807.9C295.647 814.667 289.93 824.233 287.363 836.6H379.763C378.83 824.933 374.28 815.483 366.113 808.25C357.947 801.017 347.563 797.4 334.963 797.4ZM538.877 892.95C528.143 892.95 518.227 891.2 509.127 887.7L500.377 898.2C497.577 901.7 496.76 905.083 497.927 908.35C499.327 911.383 502.477 912.9 507.377 912.9H553.227C573.527 912.9 589.86 917.217 602.227 925.85C614.827 934.25 621.127 947.2 621.127 964.7C621.127 975.667 618.327 985.583 612.727 994.45C607.36 1003.55 598.61 1010.78 586.477 1016.15C574.577 1021.52 558.827 1024.2 539.227 1024.2C514.493 1024.2 494.543 1019.53 479.377 1010.2C464.443 1001.1 456.977 987.333 456.977 968.9C456.977 962.367 458.493 956.3 461.527 950.7C464.793 945.333 468.993 940.433 474.127 936C467.827 931.333 463.977 924.8 462.577 916.4C461.41 907.767 463.977 899.483 470.277 891.55L485.677 871.95C474.71 860.283 469.227 845.933 469.227 828.9C469.227 817.467 471.91 806.967 477.277 797.4C482.877 787.6 490.81 779.783 501.077 773.95C511.577 768.117 524.177 765.2 538.877 765.2C548.443 765.2 557.31 766.6 565.477 769.4H630.927V793.9L600.477 795.65V798.8C605.377 807.9 607.827 817.933 607.827 828.9C607.827 840.333 605.027 850.95 599.427 860.75C594.06 870.55 586.243 878.367 575.977 884.2C565.71 890.033 553.343 892.95 538.877 892.95ZM538.877 863.2C549.143 863.2 557.543 860.167 564.077 854.1C570.843 848.033 574.227 839.633 574.227 828.9C574.227 818.633 570.843 810.467 564.077 804.4C557.543 798.333 549.143 795.3 538.877 795.3C528.377 795.3 519.743 798.333 512.977 804.4C506.443 810.467 503.177 818.633 503.177 828.9C503.177 839.633 506.443 848.033 512.977 854.1C519.743 860.167 528.377 863.2 538.877 863.2ZM491.977 966.1C491.977 975.433 496.41 982.317 505.277 986.75C514.377 991.183 525.693 993.4 539.227 993.4C553.693 993.4 565.127 990.95 573.527 986.05C581.927 981.15 586.127 974.267 586.127 965.4C586.127 957.933 583.093 951.983 577.027 947.55C570.96 943.35 560.693 941.25 546.227 941.25H505.277C496.41 948.25 491.977 956.533 491.977 966.1Z" fill="#00AEEF"/>
<path d="M755.39 947.2C740.457 947.2 726.923 943.7 714.79 936.7C702.657 929.467 692.973 919.083 685.74 905.55C678.507 892.017 674.89 875.567 674.89 856.2C674.89 836.833 678.507 820.383 685.74 806.85C693.207 793.317 703.007 783.05 715.14 776.05C727.273 768.817 740.69 765.2 755.39 765.2C776.623 765.2 793.307 770.45 805.44 780.95C817.807 791.45 825.74 805.333 829.24 822.6H804.74C801.707 812.1 795.873 803.817 787.24 797.75C778.84 791.45 768.223 788.3 755.39 788.3C745.823 788.3 736.84 790.75 728.44 795.65C720.04 800.55 713.157 808.017 707.79 818.05C702.657 827.85 700.09 840.567 700.09 856.2C700.09 871.6 702.657 884.433 707.79 894.7C713.157 904.733 720.04 912.2 728.44 917.1C736.84 922 745.823 924.45 755.39 924.45C769.157 924.45 780.123 921.3 788.29 915C796.457 908.467 801.94 900.067 804.74 889.8H829.24C825.04 907.767 816.523 921.883 803.69 932.15C791.09 942.183 774.99 947.2 755.39 947.2ZM962.453 947.2C946.353 947.2 932.12 943.467 919.753 936C907.386 928.533 897.703 918.033 890.703 904.5C883.703 890.733 880.203 874.633 880.203 856.2C880.203 837.533 883.703 821.433 890.703 807.9C897.703 794.367 907.386 783.867 919.753 776.4C932.12 768.933 946.353 765.2 962.453 765.2C978.553 765.2 992.786 768.933 1005.15 776.4C1017.52 783.867 1027.2 794.367 1034.2 807.9C1041.2 821.433 1044.7 837.533 1044.7 856.2C1044.7 874.633 1041.2 890.733 1034.2 904.5C1027.2 918.033 1017.52 928.533 1005.15 936C992.786 943.467 978.553 947.2 962.453 947.2ZM962.453 924.1C973.186 924.1 982.753 921.65 991.153 916.75C999.786 911.85 1006.67 904.383 1011.8 894.35C1016.94 884.317 1019.5 871.6 1019.5 856.2C1019.5 840.567 1016.94 827.85 1011.8 818.05C1006.67 808.017 999.786 800.55 991.153 795.65C982.753 790.75 973.186 788.3 962.453 788.3C951.953 788.3 942.386 790.75 933.753 795.65C925.12 800.55 918.236 808.017 913.103 818.05C907.97 827.85 905.403 840.567 905.403 856.2C905.403 871.6 907.97 884.317 913.103 894.35C918.236 904.383 925.12 911.85 933.753 916.75C942.386 921.65 951.953 924.1 962.453 924.1ZM1168.47 947.2C1153.53 947.2 1140.23 943.7 1128.57 936.7C1117.13 929.467 1108.15 919.083 1101.62 905.55C1095.08 891.783 1091.82 875.217 1091.82 855.85C1091.82 836.483 1095.08 820.033 1101.62 806.5C1108.15 792.967 1117.13 782.7 1128.57 775.7C1140.23 768.7 1153.53 765.2 1168.47 765.2C1182.7 765.2 1194.37 768 1203.47 773.6C1212.57 779.2 1219.33 786.667 1223.77 796V691H1248.27V943H1229.37L1225.87 915.35H1223.77C1219.33 925.15 1212.33 932.967 1202.77 938.8C1193.43 944.4 1182 947.2 1168.47 947.2ZM1170.22 924.1C1185.85 924.1 1198.68 918.5 1208.72 907.3C1218.75 896.1 1223.77 879.067 1223.77 856.2C1223.77 833.333 1218.75 816.3 1208.72 805.1C1198.68 793.9 1185.85 788.3 1170.22 788.3C1154.58 788.3 1141.75 793.9 1131.72 805.1C1121.68 816.3 1116.67 833.333 1116.67 856.2C1116.67 879.067 1121.68 896.1 1131.72 907.3C1141.75 918.5 1154.58 924.1 1170.22 924.1ZM1383.93 947.2C1367.83 947.2 1353.6 943.467 1341.23 936C1328.86 928.3 1319.06 917.683 1311.83 904.15C1304.83 890.383 1301.33 874.283 1301.33 855.85C1301.33 837.417 1304.83 821.433 1311.83 807.9C1318.83 794.367 1328.51 783.867 1340.88 776.4C1353.48 768.933 1368.06 765.2 1384.63 765.2C1401.43 765.2 1415.66 769.05 1427.33 776.75C1439 784.217 1447.86 794.017 1453.93 806.15C1460 818.283 1463.03 831.35 1463.03 845.35C1463.03 847.683 1463.03 850.133 1463.03 852.7C1463.03 855.267 1462.91 858.183 1462.68 861.45H1325.13C1325.83 875.683 1328.98 887.467 1334.58 896.8C1340.41 905.9 1347.65 912.783 1356.28 917.45C1365.15 921.883 1374.36 924.1 1383.93 924.1C1398.16 924.1 1409.13 921.183 1416.83 915.35C1424.76 909.283 1430.6 901.117 1434.33 890.85H1458.13C1454.4 906.483 1446.35 919.783 1433.98 930.75C1421.85 941.717 1405.16 947.2 1383.93 947.2ZM1383.58 787.6C1368.88 787.6 1355.93 792.15 1344.73 801.25C1333.76 810.35 1327.35 822.95 1325.48 839.05H1439.23C1438.3 822.717 1432.7 810.117 1422.43 801.25C1412.4 792.15 1399.45 787.6 1383.58 787.6Z" fill="#1C75BC"/>
<path d="M794.746 382.309L842.013 407.893L820.764 443.452L773.064 415.265L773.931 467.736H733.169L733.603 414.832L685.903 443.452L665.088 407.893L712.355 382.309L665.088 356.29L685.903 320.732L733.603 349.352L733.169 296.448H773.931L773.064 349.352L820.764 320.732L842.013 356.29L794.746 382.309Z" fill="#2E3192"/>
<path d="M725.341 78L420 378.974L492.787 437.203L725.341 207.925V78Z" fill="#1C75BC"/>
<path d="M485.145 313.466L485.508 444.482L569.941 360.049L485.145 313.466Z" fill="#2E3192"/>
<path d="M725.341 554.754L485.144 313.466L420 378.974L725.341 686.135V554.754Z" fill="#00AEEF"/>
<path d="M780.659 686.135L1086 384.797L1013.21 326.567L780.659 556.21V686.135Z" fill="#1C75BC"/>
<path d="M1020.86 450.669L1020.49 319.652L936.059 404.085L1020.86 450.669Z" fill="#2E3192"/>
<path d="M780.659 209.016L1020.86 450.669L1086 385.161L780.659 78V209.016Z" fill="#00AEEF"/>
</svg>
