<svg width="2400" height="500" viewBox="0 0 2400 500" fill="none" xmlns="http://www.w3.org/2000/svg">
<g clip-path="url(#clip0)">
<path d="M319.705 249.959L351.075 266.938L336.973 290.537L305.316 271.831L305.891 306.653H278.839L279.127 271.543L247.47 290.537L233.656 266.938L265.025 249.959L233.656 232.691L247.47 209.092L279.127 228.087L278.839 192.976H305.891L305.316 228.087L336.973 209.092L351.075 232.691L319.705 249.959Z" fill="#2E3192"/>
<path d="M273.644 48L71 247.745L119.306 286.39L273.644 134.226V48Z" fill="#1C75BC"/>
<path d="M114.234 204.27L114.475 291.221L170.51 235.186L114.234 204.27Z" fill="#2E3192"/>
<path d="M273.644 364.404L114.234 204.27L71 247.745L273.644 451.597V364.404Z" fill="#00AEEF"/>
<path d="M310.356 451.597L513 251.61L464.694 212.965L310.356 365.371V451.597Z" fill="#1C75BC"/>
<path d="M469.766 295.327L469.524 208.376L413.489 264.411L469.766 295.327Z" fill="#2E3192"/>
<path d="M310.356 134.951L469.766 295.327L513 251.851L310.356 48V134.951Z" fill="#00AEEF"/>
<path d="M628.8 361V324.2H677.2V212.6C677.2 203.8 672.933 199.4 664.4 199.4H632.8V162.6H680.4C691.333 162.6 700.267 165.8 707.2 172.2C714.133 178.333 717.6 187 717.6 198.2V203H719.6C722.533 188.067 728.8 176.867 738.4 169.4C748.267 161.667 762.533 157.8 781.2 157.8H812V202.6H768.8C753.067 202.6 740.933 208.067 732.4 219C723.867 229.933 719.6 243 719.6 258.2V324.2H781.2V361H628.8ZM960.244 365.8C941.044 365.8 924.11 361.533 909.444 353C894.777 344.2 883.31 332.067 875.044 316.6C866.777 301.133 862.644 283.133 862.644 262.6C862.644 241.8 866.644 223.533 874.644 207.8C882.91 192.067 894.377 179.8 909.044 171C923.977 162.2 941.177 157.8 960.644 157.8C979.844 157.8 996.377 162.2 1010.24 171C1024.11 179.533 1034.78 191 1042.24 205.4C1049.98 219.8 1053.84 235.667 1053.84 253C1053.84 255.667 1053.84 258.6 1053.84 261.8C1053.84 264.733 1053.71 268.067 1053.44 271.8H904.244C905.577 290.2 911.577 304.2 922.244 313.8C932.91 323.133 945.444 327.8 959.844 327.8C972.377 327.8 982.244 325.267 989.444 320.2C996.91 314.867 1002.38 307.667 1005.84 298.6H1048.64C1043.84 317.533 1033.84 333.533 1018.64 346.6C1003.44 359.4 983.977 365.8 960.244 365.8ZM960.244 194.6C947.177 194.6 935.577 198.6 925.444 206.6C915.31 214.333 908.777 225.267 905.844 239.4H1011.44C1010.38 226.067 1005.18 215.267 995.844 207C986.51 198.733 974.644 194.6 960.244 194.6ZM1193.29 303.8C1181.02 303.8 1169.69 301.8 1159.29 297.8L1149.29 309.8C1146.09 313.8 1145.15 317.667 1146.49 321.4C1148.09 324.867 1151.69 326.6 1157.29 326.6H1209.69C1232.89 326.6 1251.55 331.533 1265.69 341.4C1280.09 351 1287.29 365.8 1287.29 385.8C1287.29 398.333 1284.09 409.667 1277.69 419.8C1271.55 430.2 1261.55 438.467 1247.69 444.6C1234.09 450.733 1216.09 453.8 1193.69 453.8C1165.42 453.8 1142.62 448.467 1125.29 437.8C1108.22 427.4 1099.69 411.667 1099.69 390.6C1099.69 383.133 1101.42 376.2 1104.89 369.8C1108.62 363.667 1113.42 358.067 1119.29 353C1112.09 347.667 1107.69 340.2 1106.09 330.6C1104.75 320.733 1107.69 311.267 1114.89 302.2L1132.49 279.8C1119.95 266.467 1113.69 250.067 1113.69 230.6C1113.69 217.533 1116.75 205.533 1122.89 194.6C1129.29 183.4 1138.35 174.467 1150.09 167.8C1162.09 161.133 1176.49 157.8 1193.29 157.8C1204.22 157.8 1214.35 159.4 1223.69 162.6H1298.49V190.6L1263.69 192.6V196.2C1269.29 206.6 1272.09 218.067 1272.09 230.6C1272.09 243.667 1268.89 255.8 1262.49 267C1256.35 278.2 1247.42 287.133 1235.69 293.8C1223.95 300.467 1209.82 303.8 1193.29 303.8ZM1193.29 269.8C1205.02 269.8 1214.62 266.333 1222.09 259.4C1229.82 252.467 1233.69 242.867 1233.69 230.6C1233.69 218.867 1229.82 209.533 1222.09 202.6C1214.62 195.667 1205.02 192.2 1193.29 192.2C1181.29 192.2 1171.42 195.667 1163.69 202.6C1156.22 209.533 1152.49 218.867 1152.49 230.6C1152.49 242.867 1156.22 252.467 1163.69 259.4C1171.42 266.333 1181.29 269.8 1193.29 269.8ZM1139.69 387.4C1139.69 398.067 1144.75 405.933 1154.89 411C1165.29 416.067 1178.22 418.6 1193.69 418.6C1210.22 418.6 1223.29 415.8 1232.89 410.2C1242.49 404.6 1247.29 396.733 1247.29 386.6C1247.29 378.067 1243.82 371.267 1236.89 366.2C1229.95 361.4 1218.22 359 1201.69 359H1154.89C1144.75 367 1139.69 376.467 1139.69 387.4Z" fill="#00AEEF"/>
<path d="M1440.73 365.8C1423.66 365.8 1408.2 361.8 1394.33 353.8C1380.46 345.533 1369.4 333.667 1361.13 318.2C1352.86 302.733 1348.73 283.933 1348.73 261.8C1348.73 239.667 1352.86 220.867 1361.13 205.4C1369.66 189.933 1380.86 178.2 1394.73 170.2C1408.6 161.933 1423.93 157.8 1440.73 157.8C1465 157.8 1484.06 163.8 1497.93 175.8C1512.06 187.8 1521.13 203.667 1525.13 223.4H1497.13C1493.66 211.4 1487 201.933 1477.13 195C1467.53 187.8 1455.4 184.2 1440.73 184.2C1429.8 184.2 1419.53 187 1409.93 192.6C1400.33 198.2 1392.46 206.733 1386.33 218.2C1380.46 229.4 1377.53 243.933 1377.53 261.8C1377.53 279.4 1380.46 294.067 1386.33 305.8C1392.46 317.267 1400.33 325.8 1409.93 331.4C1419.53 337 1429.8 339.8 1440.73 339.8C1456.46 339.8 1469 336.2 1478.33 329C1487.66 321.533 1493.93 311.933 1497.13 300.2H1525.13C1520.33 320.733 1510.6 336.867 1495.93 348.6C1481.53 360.067 1463.13 365.8 1440.73 365.8ZM1677.38 365.8C1658.98 365.8 1642.71 361.533 1628.58 353C1614.44 344.467 1603.38 332.467 1595.38 317C1587.38 301.267 1583.38 282.867 1583.38 261.8C1583.38 240.467 1587.38 222.067 1595.38 206.6C1603.38 191.133 1614.44 179.133 1628.58 170.6C1642.71 162.067 1658.98 157.8 1677.38 157.8C1695.78 157.8 1712.04 162.067 1726.18 170.6C1740.31 179.133 1751.38 191.133 1759.37 206.6C1767.38 222.067 1771.38 240.467 1771.38 261.8C1771.38 282.867 1767.38 301.267 1759.37 317C1751.38 332.467 1740.31 344.467 1726.18 353C1712.04 361.533 1695.78 365.8 1677.38 365.8ZM1677.38 339.4C1689.64 339.4 1700.58 336.6 1710.18 331C1720.04 325.4 1727.91 316.867 1733.78 305.4C1739.64 293.933 1742.58 279.4 1742.58 261.8C1742.58 243.933 1739.64 229.4 1733.78 218.2C1727.91 206.733 1720.04 198.2 1710.18 192.6C1700.58 187 1689.64 184.2 1677.38 184.2C1665.38 184.2 1654.44 187 1644.58 192.6C1634.71 198.2 1626.84 206.733 1620.98 218.2C1615.11 229.4 1612.18 243.933 1612.18 261.8C1612.18 279.4 1615.11 293.933 1620.98 305.4C1626.84 316.867 1634.71 325.4 1644.58 331C1654.44 336.6 1665.38 339.4 1677.38 339.4ZM1912.82 365.8C1895.75 365.8 1880.55 361.8 1867.22 353.8C1854.15 345.533 1843.89 333.667 1836.42 318.2C1828.95 302.467 1825.22 283.533 1825.22 261.4C1825.22 239.267 1828.95 220.467 1836.42 205C1843.89 189.533 1854.15 177.8 1867.22 169.8C1880.55 161.8 1895.75 157.8 1912.82 157.8C1929.09 157.8 1942.42 161 1952.82 167.4C1963.22 173.8 1970.95 182.333 1976.02 193V73H2004.02V361H1982.42L1978.42 329.4H1976.02C1970.95 340.6 1962.95 349.533 1952.02 356.2C1941.35 362.6 1928.29 365.8 1912.82 365.8ZM1914.82 339.4C1932.69 339.4 1947.35 333 1958.82 320.2C1970.29 307.4 1976.02 287.933 1976.02 261.8C1976.02 235.667 1970.29 216.2 1958.82 203.4C1947.35 190.6 1932.69 184.2 1914.82 184.2C1896.95 184.2 1882.29 190.6 1870.82 203.4C1859.35 216.2 1853.62 235.667 1853.62 261.8C1853.62 287.933 1859.35 307.4 1870.82 320.2C1882.29 333 1896.95 339.4 1914.82 339.4ZM2159.06 365.8C2140.66 365.8 2124.4 361.533 2110.26 353C2096.13 344.2 2084.93 332.067 2076.66 316.6C2068.66 300.867 2064.66 282.467 2064.66 261.4C2064.66 240.333 2068.66 222.067 2076.66 206.6C2084.66 191.133 2095.73 179.133 2109.86 170.6C2124.26 162.067 2140.93 157.8 2159.86 157.8C2179.06 157.8 2195.33 162.2 2208.66 171C2222 179.533 2232.13 190.733 2239.06 204.6C2246 218.467 2249.46 233.4 2249.46 249.4C2249.46 252.067 2249.46 254.867 2249.46 257.8C2249.46 260.733 2249.33 264.067 2249.06 267.8H2091.86C2092.66 284.067 2096.26 297.533 2102.66 308.2C2109.33 318.6 2117.6 326.467 2127.46 331.8C2137.6 336.867 2148.13 339.4 2159.06 339.4C2175.33 339.4 2187.86 336.067 2196.66 329.4C2205.73 322.467 2212.4 313.133 2216.66 301.4H2243.86C2239.6 319.267 2230.4 334.467 2216.26 347C2202.4 359.533 2183.33 365.8 2159.06 365.8ZM2158.66 183.4C2141.86 183.4 2127.06 188.6 2114.26 199C2101.73 209.4 2094.4 223.8 2092.26 242.2H2222.26C2221.2 223.533 2214.8 209.133 2203.06 199C2191.6 188.6 2176.8 183.4 2158.66 183.4Z" fill="#1C75BC"/>
</g>
<defs>
<clipPath id="clip0">
<rect width="2400" height="500" fill="white"/>
</clipPath>
</defs>
</svg>
