<svg width="500" height="500" viewBox="0 0 500 500" fill="none" xmlns="http://www.w3.org/2000/svg">
<path d="M281.341 250.46L316.826 269.668L300.874 296.363L265.063 275.202L265.714 314.594H235.112L235.438 274.877L199.627 296.363L184 269.668L219.485 250.46L184 230.927L199.627 204.231L235.438 225.718L235.112 186H265.714L265.063 225.718L300.874 204.231L316.826 230.927L281.341 250.46Z" fill="#2E3192"/>
<path d="M229.235 22L0 247.956L54.6448 291.672L229.235 119.541V22Z" fill="#1C75BC"/>
<path d="M48.9072 198.776L49.1804 297.137L112.568 233.749L48.9072 198.776Z" fill="#2E3192"/>
<path d="M229.235 379.923L48.9071 198.776L0 247.956L229.235 478.557V379.923Z" fill="#00AEEF"/>
<path d="M270.765 478.557L500 252.328L445.355 208.612L270.765 381.016V478.557Z" fill="#1C75BC"/>
<path d="M451.093 301.781L450.82 203.421L387.432 266.809L451.093 301.781Z" fill="#2E3192"/>
<path d="M270.765 120.361L451.093 301.781L500 252.601L270.765 22V120.361Z" fill="#00AEEF"/>
</svg>
