<svg width="1862" height="444" viewBox="0 0 1862 444" fill="none" xmlns="http://www.w3.org/2000/svg">
<rect width="1862" height="444" fill="white"/>
<path d="M114.555 80V54.8H118.265V65.23C118.732 64.3667 119.478 63.655 120.505 63.095C121.532 62.5117 122.687 62.22 123.97 62.22C126.117 62.22 127.75 62.8733 128.87 64.18C129.99 65.4633 130.55 67.3183 130.55 69.745V80H126.84V70.27C126.84 68.8233 126.49 67.7033 125.79 66.91C125.09 66.1167 124.122 65.72 122.885 65.72C121.602 65.72 120.505 66.1517 119.595 67.015C118.708 67.8783 118.265 69.1267 118.265 70.76V80H114.555ZM141.911 80.42C140.535 80.42 139.38 80.1867 138.446 79.72C137.513 79.23 136.813 78.5883 136.346 77.795C135.88 76.9783 135.646 76.0917 135.646 75.135C135.646 73.4317 136.265 72.1017 137.501 71.145C138.761 70.1883 140.535 69.71 142.821 69.71H147.301V69.325C147.301 66.7117 146.088 65.405 143.661 65.405C142.658 65.405 141.806 65.6267 141.106 66.07C140.43 66.49 139.975 67.1783 139.741 68.135H136.031C136.218 66.315 137 64.88 138.376 63.83C139.776 62.7567 141.538 62.22 143.661 62.22C146.228 62.22 148.095 62.85 149.261 64.11C150.428 65.37 151.011 67.1083 151.011 69.325V80H147.861L147.546 77.445H147.301C146.788 78.2617 146.146 78.9617 145.376 79.545C144.606 80.1283 143.451 80.42 141.911 80.42ZM142.611 77.305C144.128 77.305 145.26 76.85 146.006 75.94C146.776 75.0067 147.196 73.8283 147.266 72.405H143.206C141.876 72.405 140.931 72.6267 140.371 73.07C139.835 73.49 139.566 74.085 139.566 74.855C139.566 75.625 139.835 76.2317 140.371 76.675C140.931 77.095 141.678 77.305 142.611 77.305ZM164.613 80.42C162.326 80.42 160.506 79.8833 159.153 78.81C157.799 77.7367 157.029 76.3133 156.843 74.54H160.658C160.798 75.3567 161.206 76.0217 161.883 76.535C162.583 77.0483 163.504 77.305 164.648 77.305C165.744 77.305 166.584 77.0833 167.168 76.64C167.774 76.1733 168.078 75.6367 168.078 75.03C168.078 74.1433 167.716 73.5367 166.993 73.21C166.293 72.8833 165.254 72.6383 163.878 72.475C162.688 72.335 161.603 72.0667 160.623 71.67C159.666 71.25 158.908 70.69 158.348 69.99C157.788 69.2667 157.508 68.3683 157.508 67.295C157.508 65.7783 158.103 64.5533 159.293 63.62C160.483 62.6867 162.139 62.22 164.263 62.22C166.386 62.22 168.031 62.6983 169.198 63.655C170.364 64.6117 171.041 65.9183 171.228 67.575H167.658C167.564 66.875 167.203 66.3267 166.573 65.93C165.943 65.51 165.161 65.3 164.228 65.3C163.271 65.3 162.513 65.4867 161.953 65.86C161.393 66.21 161.113 66.6767 161.113 67.26C161.113 68.52 162.466 69.29 165.173 69.57C166.456 69.71 167.599 69.955 168.603 70.305C169.606 70.6317 170.399 71.1567 170.983 71.88C171.566 72.58 171.858 73.5717 171.858 74.855C171.881 75.905 171.578 76.85 170.948 77.69C170.341 78.53 169.489 79.195 168.393 79.685C167.319 80.175 166.059 80.42 164.613 80.42ZM176.919 80V55.5H185.669C188.212 55.5 190.137 56.0833 191.444 57.25C192.751 58.4167 193.404 59.9217 193.404 61.765C193.404 63.1883 193.031 64.3433 192.284 65.23C191.537 66.1167 190.674 66.7583 189.694 67.155V67.4C190.861 67.82 191.864 68.5083 192.704 69.465C193.544 70.3983 193.964 71.635 193.964 73.175C193.964 74.435 193.649 75.59 193.019 76.64C192.412 77.6667 191.514 78.4833 190.324 79.09C189.134 79.6967 187.676 80 185.949 80H176.919ZM180.629 65.72H185.214C186.637 65.72 187.722 65.44 188.469 64.88C189.216 64.2967 189.589 63.4217 189.589 62.255C189.589 59.945 188.107 58.79 185.144 58.79H180.629V65.72ZM180.629 76.57H185.459C186.976 76.57 188.142 76.2433 188.959 75.59C189.776 74.9367 190.184 73.98 190.184 72.72C190.184 71.4833 189.752 70.5383 188.889 69.885C188.026 69.2083 186.859 68.87 185.389 68.87H180.629V76.57ZM206.655 80.42C204.975 80.42 203.494 80.0467 202.21 79.3C200.927 78.53 199.924 77.4683 199.2 76.115C198.477 74.7617 198.115 73.1867 198.115 71.39C198.115 69.57 198.465 67.9717 199.165 66.595C199.889 65.2183 200.892 64.145 202.175 63.375C203.482 62.605 204.987 62.22 206.69 62.22C208.37 62.22 209.817 62.605 211.03 63.375C212.244 64.1217 213.177 65.125 213.83 66.385C214.507 67.645 214.845 69.0333 214.845 70.55C214.845 70.7833 214.845 71.04 214.845 71.32C214.845 71.5767 214.834 71.8683 214.81 72.195H201.755C201.872 73.805 202.397 75.03 203.33 75.87C204.264 76.6867 205.36 77.095 206.62 77.095C207.717 77.095 208.58 76.8733 209.21 76.43C209.864 75.9633 210.342 75.3333 210.645 74.54H214.39C213.97 76.1967 213.095 77.5967 211.765 78.74C210.435 79.86 208.732 80.42 206.655 80.42ZM206.655 65.44C205.512 65.44 204.497 65.79 203.61 66.49C202.724 67.1667 202.152 68.1233 201.895 69.36H211.135C211.042 68.1933 210.587 67.2483 209.77 66.525C208.954 65.8017 207.915 65.44 206.655 65.44ZM219.347 87.7V84.445H222.182C222.998 84.445 223.582 84.27 223.932 83.92C224.305 83.5933 224.492 83.0333 224.492 82.24V65.79H220.082V62.64H224.492V60.225C224.492 58.2883 224.97 56.9 225.927 56.06C226.883 55.22 228.248 54.8 230.022 54.8H234.257V58.055H230.477C229.66 58.055 229.077 58.2183 228.727 58.545C228.377 58.8717 228.202 59.4433 228.202 60.26V62.64H234.257V65.79H228.202V82.275C228.202 84.2117 227.723 85.6 226.767 86.44C225.81 87.28 224.433 87.7 222.637 87.7H219.347ZM248.418 80.42C246.761 80.42 245.28 80.0467 243.973 79.3C242.666 78.5533 241.64 77.5033 240.893 76.15C240.146 74.7733 239.773 73.1633 239.773 71.32C239.773 69.4767 240.146 67.8783 240.893 66.525C241.64 65.1483 242.666 64.0867 243.973 63.34C245.28 62.5933 246.773 62.22 248.453 62.22C250.133 62.22 251.615 62.5933 252.898 63.34C254.205 64.0867 255.22 65.1483 255.943 66.525C256.69 67.8783 257.063 69.4767 257.063 71.32C257.063 73.1633 256.69 74.7733 255.943 76.15C255.196 77.5033 254.17 78.5533 252.863 79.3C251.58 80.0467 250.098 80.42 248.418 80.42ZM248.418 76.885C249.305 76.885 250.121 76.6867 250.868 76.29C251.615 75.8933 252.21 75.2867 252.653 74.47C253.12 73.63 253.353 72.58 253.353 71.32C253.353 70.0367 253.12 68.9867 252.653 68.17C252.21 67.3533 251.615 66.7467 250.868 66.35C250.145 65.9533 249.34 65.755 248.453 65.755C247.566 65.755 246.75 65.9533 246.003 66.35C245.256 66.7467 244.65 67.3533 244.183 68.17C243.74 68.9867 243.518 70.0367 243.518 71.32C243.518 73.2333 243.996 74.645 244.953 75.555C245.933 76.4417 247.088 76.885 248.418 76.885ZM261.599 80V76.78H265.834V67.015C265.834 66.245 265.461 65.86 264.714 65.86H261.949V62.64H266.114C267.071 62.64 267.853 62.92 268.459 63.48C269.066 64.0167 269.369 64.775 269.369 65.755V66.175H269.544C269.801 64.8683 270.349 63.8883 271.189 63.235C272.053 62.5583 273.301 62.22 274.934 62.22H277.629V66.14H273.849C272.473 66.14 271.411 66.6183 270.664 67.575C269.918 68.5317 269.544 69.675 269.544 71.005V76.78H274.934V80H261.599ZM290.601 80.42C288.921 80.42 287.439 80.0467 286.156 79.3C284.872 78.53 283.869 77.4683 283.146 76.115C282.422 74.7617 282.061 73.1867 282.061 71.39C282.061 69.57 282.411 67.9717 283.111 66.595C283.834 65.2183 284.837 64.145 286.121 63.375C287.427 62.605 288.932 62.22 290.636 62.22C292.316 62.22 293.762 62.605 294.976 63.375C296.189 64.1217 297.122 65.125 297.776 66.385C298.452 67.645 298.791 69.0333 298.791 70.55C298.791 70.7833 298.791 71.04 298.791 71.32C298.791 71.5767 298.779 71.8683 298.756 72.195H285.701C285.817 73.805 286.342 75.03 287.276 75.87C288.209 76.6867 289.306 77.095 290.566 77.095C291.662 77.095 292.526 76.8733 293.156 76.43C293.809 75.9633 294.287 75.3333 294.591 74.54H298.336C297.916 76.1967 297.041 77.5967 295.711 78.74C294.381 79.86 292.677 80.42 290.601 80.42ZM290.601 65.44C289.457 65.44 288.442 65.79 287.556 66.49C286.669 67.1667 286.097 68.1233 285.841 69.36H295.081C294.987 68.1933 294.532 67.2483 293.716 66.525C292.899 65.8017 291.861 65.44 290.601 65.44ZM534.457 80V62.64H537.677L537.992 65.23H538.167C538.633 64.39 539.357 63.6783 540.337 63.095C541.317 62.5117 542.448 62.22 543.732 62.22C545.855 62.22 547.453 62.8617 548.527 64.145C549.6 65.4283 550.137 67.3183 550.137 69.815V80H546.427V70.27C546.427 68.8233 546.123 67.7033 545.517 66.91C544.91 66.1167 543.953 65.72 542.647 65.72C541.363 65.72 540.29 66.1517 539.427 67.015C538.587 67.8783 538.167 69.1267 538.167 70.76V80H534.457ZM563.213 80.42C561.556 80.42 560.075 80.0467 558.768 79.3C557.461 78.5533 556.435 77.5033 555.688 76.15C554.941 74.7733 554.568 73.1633 554.568 71.32C554.568 69.4767 554.941 67.8783 555.688 66.525C556.435 65.1483 557.461 64.0867 558.768 63.34C560.075 62.5933 561.568 62.22 563.248 62.22C564.928 62.22 566.41 62.5933 567.693 63.34C569 64.0867 570.015 65.1483 570.738 66.525C571.485 67.8783 571.858 69.4767 571.858 71.32C571.858 73.1633 571.485 74.7733 570.738 76.15C569.991 77.5033 568.965 78.5533 567.658 79.3C566.375 80.0467 564.893 80.42 563.213 80.42ZM563.213 76.885C564.1 76.885 564.916 76.6867 565.663 76.29C566.41 75.8933 567.005 75.2867 567.448 74.47C567.915 73.63 568.148 72.58 568.148 71.32C568.148 70.0367 567.915 68.9867 567.448 68.17C567.005 67.3533 566.41 66.7467 565.663 66.35C564.94 65.9533 564.135 65.755 563.248 65.755C562.361 65.755 561.545 65.9533 560.798 66.35C560.051 66.7467 559.445 67.3533 558.978 68.17C558.535 68.9867 558.313 70.0367 558.313 71.32C558.313 73.2333 558.791 74.645 559.748 75.555C560.728 76.4417 561.883 76.885 563.213 76.885ZM576.394 80V76.78H580.629V67.015C580.629 66.245 580.256 65.86 579.509 65.86H576.744V62.64H580.909C581.866 62.64 582.648 62.92 583.254 63.48C583.861 64.0167 584.164 64.775 584.164 65.755V66.175H584.339C584.596 64.8683 585.144 63.8883 585.984 63.235C586.848 62.5583 588.096 62.22 589.729 62.22H592.424V66.14H588.644C587.268 66.14 586.206 66.6183 585.459 67.575C584.713 68.5317 584.339 69.675 584.339 71.005V76.78H589.729V80H576.394ZM595.561 80V62.64H598.641L598.956 64.67H599.131C599.434 63.9467 599.901 63.3633 600.531 62.92C601.161 62.4533 601.907 62.22 602.771 62.22C603.611 62.22 604.346 62.43 604.976 62.85C605.606 63.27 606.072 63.8767 606.376 64.67H606.516C606.819 63.97 607.297 63.3867 607.951 62.92C608.604 62.4533 609.409 62.22 610.366 62.22C611.649 62.22 612.617 62.64 613.271 63.48C613.947 64.32 614.286 65.4983 614.286 67.015V80H610.716V67.75C610.716 67.05 610.564 66.5017 610.261 66.105C609.981 65.685 609.526 65.475 608.896 65.475C608.266 65.475 607.741 65.72 607.321 66.21C606.924 66.7 606.726 67.3883 606.726 68.275V80H603.121V67.75C603.121 67.05 602.981 66.5017 602.701 66.105C602.421 65.685 601.966 65.475 601.336 65.475C600.706 65.475 600.181 65.72 599.761 66.21C599.341 66.7 599.131 67.3883 599.131 68.275V80H595.561ZM624.597 80.42C623.22 80.42 622.065 80.1867 621.132 79.72C620.199 79.23 619.499 78.5883 619.032 77.795C618.565 76.9783 618.332 76.0917 618.332 75.135C618.332 73.4317 618.95 72.1017 620.187 71.145C621.447 70.1883 623.22 69.71 625.507 69.71H629.987V69.325C629.987 66.7117 628.774 65.405 626.347 65.405C625.344 65.405 624.492 65.6267 623.792 66.07C623.115 66.49 622.66 67.1783 622.427 68.135H618.717C618.904 66.315 619.685 64.88 621.062 63.83C622.462 62.7567 624.224 62.22 626.347 62.22C628.914 62.22 630.78 62.85 631.947 64.11C633.114 65.37 633.697 67.1083 633.697 69.325V80H630.547L630.232 77.445H629.987C629.474 78.2617 628.832 78.9617 628.062 79.545C627.292 80.1283 626.137 80.42 624.597 80.42ZM625.297 77.305C626.814 77.305 627.945 76.85 628.692 75.94C629.462 75.0067 629.882 73.8283 629.952 72.405H625.892C624.562 72.405 623.617 72.6267 623.057 73.07C622.52 73.49 622.252 74.085 622.252 74.855C622.252 75.625 622.52 76.2317 623.057 76.675C623.617 77.095 624.364 77.305 625.297 77.305ZM639.038 80V76.78H644.848V59.175C644.848 58.405 644.475 58.02 643.728 58.02H639.528V54.8H644.393C645.747 54.8 646.773 55.1617 647.473 55.885C648.197 56.585 648.558 57.6117 648.558 58.965V76.78H654.403V80H639.038ZM1164.05 80V62.64H1167.27L1167.58 65.23H1167.76C1168.22 64.39 1168.95 63.6783 1169.93 63.095C1170.91 62.5117 1172.04 62.22 1173.32 62.22C1175.44 62.22 1177.04 62.8617 1178.12 64.145C1179.19 65.4283 1179.73 67.3183 1179.73 69.815V80H1176.02V70.27C1176.02 68.8233 1175.71 67.7033 1175.11 66.91C1174.5 66.1167 1173.54 65.72 1172.24 65.72C1170.95 65.72 1169.88 66.1517 1169.02 67.015C1168.18 67.8783 1167.76 69.1267 1167.76 70.76V80H1164.05ZM1192.8 80.42C1191.15 80.42 1189.66 80.0467 1188.36 79.3C1187.05 78.5533 1186.02 77.5033 1185.28 76.15C1184.53 74.7733 1184.16 73.1633 1184.16 71.32C1184.16 69.4767 1184.53 67.8783 1185.28 66.525C1186.02 65.1483 1187.05 64.0867 1188.36 63.34C1189.66 62.5933 1191.16 62.22 1192.84 62.22C1194.52 62.22 1196 62.5933 1197.28 63.34C1198.59 64.0867 1199.6 65.1483 1200.33 66.525C1201.07 67.8783 1201.45 69.4767 1201.45 71.32C1201.45 73.1633 1201.07 74.7733 1200.33 76.15C1199.58 77.5033 1198.55 78.5533 1197.25 79.3C1195.96 80.0467 1194.48 80.42 1192.8 80.42ZM1192.8 76.885C1193.69 76.885 1194.51 76.6867 1195.25 76.29C1196 75.8933 1196.59 75.2867 1197.04 74.47C1197.5 73.63 1197.74 72.58 1197.74 71.32C1197.74 70.0367 1197.5 68.9867 1197.04 68.17C1196.59 67.3533 1196 66.7467 1195.25 66.35C1194.53 65.9533 1193.72 65.755 1192.84 65.755C1191.95 65.755 1191.13 65.9533 1190.39 66.35C1189.64 66.7467 1189.03 67.3533 1188.57 68.17C1188.12 68.9867 1187.9 70.0367 1187.9 71.32C1187.9 73.2333 1188.38 74.645 1189.34 75.555C1190.32 76.4417 1191.47 76.885 1192.8 76.885ZM1205.98 80V76.78H1210.22V67.015C1210.22 66.245 1209.85 65.86 1209.1 65.86H1206.33V62.64H1210.5C1211.46 62.64 1212.24 62.92 1212.84 63.48C1213.45 64.0167 1213.75 64.775 1213.75 65.755V66.175H1213.93C1214.19 64.8683 1214.73 63.8883 1215.57 63.235C1216.44 62.5583 1217.69 62.22 1219.32 62.22H1222.01V66.14H1218.23C1216.86 66.14 1215.8 66.6183 1215.05 67.575C1214.3 68.5317 1213.93 69.675 1213.93 71.005V76.78H1219.32V80H1205.98ZM1225.15 80V62.64H1228.23L1228.55 64.67H1228.72C1229.02 63.9467 1229.49 63.3633 1230.12 62.92C1230.75 62.4533 1231.5 62.22 1232.36 62.22C1233.2 62.22 1233.94 62.43 1234.57 62.85C1235.2 63.27 1235.66 63.8767 1235.97 64.67H1236.11C1236.41 63.97 1236.89 63.3867 1237.54 62.92C1238.19 62.4533 1239 62.22 1239.96 62.22C1241.24 62.22 1242.21 62.64 1242.86 63.48C1243.54 64.32 1243.88 65.4983 1243.88 67.015V80H1240.31V67.75C1240.31 67.05 1240.15 66.5017 1239.85 66.105C1239.57 65.685 1239.12 65.475 1238.49 65.475C1237.86 65.475 1237.33 65.72 1236.91 66.21C1236.51 66.7 1236.32 67.3883 1236.32 68.275V80H1232.71V67.75C1232.71 67.05 1232.57 66.5017 1232.29 66.105C1232.01 65.685 1231.56 65.475 1230.93 65.475C1230.3 65.475 1229.77 65.72 1229.35 66.21C1228.93 66.7 1228.72 67.3883 1228.72 68.275V80H1225.15ZM1254.19 80.42C1252.81 80.42 1251.66 80.1867 1250.72 79.72C1249.79 79.23 1249.09 78.5883 1248.62 77.795C1248.16 76.9783 1247.92 76.0917 1247.92 75.135C1247.92 73.4317 1248.54 72.1017 1249.78 71.145C1251.04 70.1883 1252.81 69.71 1255.1 69.71H1259.58V69.325C1259.58 66.7117 1258.36 65.405 1255.94 65.405C1254.93 65.405 1254.08 65.6267 1253.38 66.07C1252.71 66.49 1252.25 67.1783 1252.02 68.135H1248.31C1248.49 66.315 1249.28 64.88 1250.65 63.83C1252.05 62.7567 1253.81 62.22 1255.94 62.22C1258.5 62.22 1260.37 62.85 1261.54 64.11C1262.7 65.37 1263.29 67.1083 1263.29 69.325V80H1260.14L1259.82 77.445H1259.58C1259.06 78.2617 1258.42 78.9617 1257.65 79.545C1256.88 80.1283 1255.73 80.42 1254.19 80.42ZM1254.89 77.305C1256.4 77.305 1257.54 76.85 1258.28 75.94C1259.05 75.0067 1259.47 73.8283 1259.54 72.405H1255.48C1254.15 72.405 1253.21 72.6267 1252.65 73.07C1252.11 73.49 1251.84 74.085 1251.84 74.855C1251.84 75.625 1252.11 76.2317 1252.65 76.675C1253.21 77.095 1253.95 77.305 1254.89 77.305ZM1268.63 80V76.78H1274.44V59.175C1274.44 58.405 1274.06 58.02 1273.32 58.02H1269.12V54.8H1273.98C1275.34 54.8 1276.36 55.1617 1277.06 55.885C1277.79 56.585 1278.15 57.6117 1278.15 58.965V76.78H1283.99V80H1268.63ZM1499.83 80V62.64H1503.05L1503.36 65.23H1503.54C1504 64.39 1504.73 63.6783 1505.71 63.095C1506.69 62.5117 1507.82 62.22 1509.1 62.22C1511.23 62.22 1512.82 62.8617 1513.9 64.145C1514.97 65.4283 1515.51 67.3183 1515.51 69.815V80H1511.8V70.27C1511.8 68.8233 1511.49 67.7033 1510.89 66.91C1510.28 66.1167 1509.32 65.72 1508.02 65.72C1506.73 65.72 1505.66 66.1517 1504.8 67.015C1503.96 67.8783 1503.54 69.1267 1503.54 70.76V80H1499.83ZM1528.58 80.42C1526.93 80.42 1525.45 80.0467 1524.14 79.3C1522.83 78.5533 1521.81 77.5033 1521.06 76.15C1520.31 74.7733 1519.94 73.1633 1519.94 71.32C1519.94 69.4767 1520.31 67.8783 1521.06 66.525C1521.81 65.1483 1522.83 64.0867 1524.14 63.34C1525.45 62.5933 1526.94 62.22 1528.62 62.22C1530.3 62.22 1531.78 62.5933 1533.06 63.34C1534.37 64.0867 1535.39 65.1483 1536.11 66.525C1536.86 67.8783 1537.23 69.4767 1537.23 71.32C1537.23 73.1633 1536.86 74.7733 1536.11 76.15C1535.36 77.5033 1534.34 78.5533 1533.03 79.3C1531.75 80.0467 1530.26 80.42 1528.58 80.42ZM1528.58 76.885C1529.47 76.885 1530.29 76.6867 1531.03 76.29C1531.78 75.8933 1532.38 75.2867 1532.82 74.47C1533.29 73.63 1533.52 72.58 1533.52 71.32C1533.52 70.0367 1533.29 68.9867 1532.82 68.17C1532.38 67.3533 1531.78 66.7467 1531.03 66.35C1530.31 65.9533 1529.51 65.755 1528.62 65.755C1527.73 65.755 1526.92 65.9533 1526.17 66.35C1525.42 66.7467 1524.82 67.3533 1524.35 68.17C1523.91 68.9867 1523.68 70.0367 1523.68 71.32C1523.68 73.2333 1524.16 74.645 1525.12 75.555C1526.1 76.4417 1527.25 76.885 1528.58 76.885ZM1541.77 80V76.78H1546V67.015C1546 66.245 1545.63 65.86 1544.88 65.86H1542.12V62.64H1546.28C1547.24 62.64 1548.02 62.92 1548.63 63.48C1549.23 64.0167 1549.54 64.775 1549.54 65.755V66.175H1549.71C1549.97 64.8683 1550.52 63.8883 1551.36 63.235C1552.22 62.5583 1553.47 62.22 1555.1 62.22H1557.8V66.14H1554.02C1552.64 66.14 1551.58 66.6183 1550.83 67.575C1550.08 68.5317 1549.71 69.675 1549.71 71.005V76.78H1555.1V80H1541.77ZM1560.93 80V62.64H1564.01L1564.33 64.67H1564.5C1564.8 63.9467 1565.27 63.3633 1565.9 62.92C1566.53 62.4533 1567.28 62.22 1568.14 62.22C1568.98 62.22 1569.72 62.43 1570.35 62.85C1570.98 63.27 1571.44 63.8767 1571.75 64.67H1571.89C1572.19 63.97 1572.67 63.3867 1573.32 62.92C1573.97 62.4533 1574.78 62.22 1575.74 62.22C1577.02 62.22 1577.99 62.64 1578.64 63.48C1579.32 64.32 1579.66 65.4983 1579.66 67.015V80H1576.09V67.75C1576.09 67.05 1575.93 66.5017 1575.63 66.105C1575.35 65.685 1574.9 65.475 1574.27 65.475C1573.64 65.475 1573.11 65.72 1572.69 66.21C1572.29 66.7 1572.1 67.3883 1572.1 68.275V80H1568.49V67.75C1568.49 67.05 1568.35 66.5017 1568.07 66.105C1567.79 65.685 1567.34 65.475 1566.71 65.475C1566.08 65.475 1565.55 65.72 1565.13 66.21C1564.71 66.7 1564.5 67.3883 1564.5 68.275V80H1560.93ZM1589.97 80.42C1588.59 80.42 1587.44 80.1867 1586.5 79.72C1585.57 79.23 1584.87 78.5883 1584.4 77.795C1583.94 76.9783 1583.7 76.0917 1583.7 75.135C1583.7 73.4317 1584.32 72.1017 1585.56 71.145C1586.82 70.1883 1588.59 69.71 1590.88 69.71H1595.36V69.325C1595.36 66.7117 1594.14 65.405 1591.72 65.405C1590.71 65.405 1589.86 65.6267 1589.16 66.07C1588.49 66.49 1588.03 67.1783 1587.8 68.135H1584.09C1584.27 66.315 1585.06 64.88 1586.43 63.83C1587.83 62.7567 1589.59 62.22 1591.72 62.22C1594.28 62.22 1596.15 62.85 1597.32 64.11C1598.48 65.37 1599.07 67.1083 1599.07 69.325V80H1595.92L1595.6 77.445H1595.36C1594.84 78.2617 1594.2 78.9617 1593.43 79.545C1592.66 80.1283 1591.51 80.42 1589.97 80.42ZM1590.67 77.305C1592.18 77.305 1593.32 76.85 1594.06 75.94C1594.83 75.0067 1595.25 73.8283 1595.32 72.405H1591.26C1589.93 72.405 1588.99 72.6267 1588.43 73.07C1587.89 73.49 1587.62 74.085 1587.62 74.855C1587.62 75.625 1587.89 76.2317 1588.43 76.675C1588.99 77.095 1589.73 77.305 1590.67 77.305ZM1604.41 80V76.78H1610.22V59.175C1610.22 58.405 1609.85 58.02 1609.1 58.02H1604.9V54.8H1609.76C1611.12 54.8 1612.14 55.1617 1612.84 55.885C1613.57 56.585 1613.93 57.6117 1613.93 58.965V76.78H1619.77V80H1604.41Z" fill="#FF0015"/>
<path d="M312.602 86.475C311.365 85.075 310.234 83.535 309.207 81.855C308.204 80.1983 307.399 78.32 306.792 76.22C306.209 74.12 305.917 71.7283 305.917 69.045C305.917 66.3383 306.209 63.9467 306.792 61.87C307.399 59.77 308.204 57.8917 309.207 56.235C310.234 54.555 311.365 53.015 312.602 51.615H316.382V52.07C315.029 53.6333 313.85 55.255 312.847 56.935C311.844 58.5917 311.062 60.4117 310.502 62.395C309.942 64.355 309.662 66.5717 309.662 69.045C309.662 71.495 309.942 73.7117 310.502 75.695C311.062 77.6783 311.844 79.4983 312.847 81.155C313.85 82.835 315.029 84.4567 316.382 86.02V86.475H312.602ZM324.418 80V54.8H328.128V65.23C328.595 64.3667 329.342 63.655 330.368 63.095C331.395 62.5117 332.55 62.22 333.833 62.22C335.98 62.22 337.613 62.8733 338.733 64.18C339.853 65.4633 340.413 67.3183 340.413 69.745V80H336.703V70.27C336.703 68.8233 336.353 67.7033 335.653 66.91C334.953 66.1167 333.985 65.72 332.748 65.72C331.465 65.72 330.368 66.1517 329.458 67.015C328.572 67.8783 328.128 69.1267 328.128 70.76V80H324.418ZM355.24 80C353.536 80 352.183 79.5917 351.18 78.775C350.176 77.935 349.675 76.4533 349.675 74.33V65.79H345.3V62.64H347.89C349.08 62.64 349.78 62.0567 349.99 60.89L350.515 58.09H353.385V62.64H360.245V65.79H353.385V74.26C353.385 75.17 353.583 75.8117 353.98 76.185C354.4 76.535 355.111 76.71 356.115 76.71H360.175V80H355.24ZM376.226 80C374.523 80 373.169 79.5917 372.166 78.775C371.163 77.935 370.661 76.4533 370.661 74.33V65.79H366.286V62.64H368.876C370.066 62.64 370.766 62.0567 370.976 60.89L371.501 58.09H374.371V62.64H381.231V65.79H374.371V74.26C374.371 75.17 374.569 75.8117 374.966 76.185C375.386 76.535 376.098 76.71 377.101 76.71H381.161V80H376.226ZM387.237 87.7V62.64H390.457L390.737 65.3H390.947C391.414 64.4367 392.114 63.7133 393.047 63.13C394.004 62.5233 395.136 62.22 396.442 62.22C397.796 62.22 399.032 62.57 400.152 63.27C401.272 63.9467 402.159 64.9617 402.812 66.315C403.489 67.645 403.827 69.3133 403.827 71.32C403.827 73.3033 403.477 74.9717 402.777 76.325C402.101 77.6783 401.179 78.705 400.012 79.405C398.846 80.0817 397.539 80.42 396.092 80.42C394.809 80.42 393.736 80.1633 392.872 79.65C392.009 79.1367 391.367 78.5533 390.947 77.9V87.7H387.237ZM395.462 76.885C396.769 76.885 397.854 76.4183 398.717 75.485C399.604 74.5517 400.047 73.1517 400.047 71.285C400.047 69.4183 399.604 68.03 398.717 67.12C397.854 66.21 396.769 65.755 395.462 65.755C394.132 65.755 393.024 66.2217 392.137 67.155C391.274 68.065 390.842 69.4533 390.842 71.32C390.842 73.1633 391.274 74.5517 392.137 75.485C393.024 76.4183 394.132 76.885 395.462 76.885ZM416.449 80.42C414.162 80.42 412.342 79.8833 410.989 78.81C409.635 77.7367 408.865 76.3133 408.679 74.54H412.494C412.634 75.3567 413.042 76.0217 413.719 76.535C414.419 77.0483 415.34 77.305 416.484 77.305C417.58 77.305 418.42 77.0833 419.004 76.64C419.61 76.1733 419.914 75.6367 419.914 75.03C419.914 74.1433 419.552 73.5367 418.829 73.21C418.129 72.8833 417.09 72.6383 415.714 72.475C414.524 72.335 413.439 72.0667 412.459 71.67C411.502 71.25 410.744 70.69 410.184 69.99C409.624 69.2667 409.344 68.3683 409.344 67.295C409.344 65.7783 409.939 64.5533 411.129 63.62C412.319 62.6867 413.975 62.22 416.099 62.22C418.222 62.22 419.867 62.6983 421.034 63.655C422.2 64.6117 422.877 65.9183 423.064 67.575H419.494C419.4 66.875 419.039 66.3267 418.409 65.93C417.779 65.51 416.997 65.3 416.064 65.3C415.107 65.3 414.349 65.4867 413.789 65.86C413.229 66.21 412.949 66.6767 412.949 67.26C412.949 68.52 414.302 69.29 417.009 69.57C418.292 69.71 419.435 69.955 420.439 70.305C421.442 70.6317 422.235 71.1567 422.819 71.88C423.402 72.58 423.694 73.5717 423.694 74.855C423.717 75.905 423.414 76.85 422.784 77.69C422.177 78.53 421.325 79.195 420.229 79.685C419.155 80.175 417.895 80.42 416.449 80.42ZM437.295 80.21C436.432 80.21 435.697 79.93 435.09 79.37C434.483 78.7867 434.18 78.0867 434.18 77.27C434.18 76.4533 434.483 75.765 435.09 75.205C435.697 74.645 436.432 74.365 437.295 74.365C438.182 74.365 438.917 74.645 439.5 75.205C440.107 75.765 440.41 76.4533 440.41 77.27C440.41 78.0867 440.107 78.7867 439.5 79.37C438.917 79.93 438.182 80.21 437.295 80.21ZM437.295 66.63C436.432 66.63 435.697 66.35 435.09 65.79C434.483 65.2067 434.18 64.5067 434.18 63.69C434.18 62.8733 434.483 62.185 435.09 61.625C435.697 61.065 436.432 60.785 437.295 60.785C438.182 60.785 438.917 61.065 439.5 61.625C440.107 62.185 440.41 62.8733 440.41 63.69C440.41 64.5067 440.107 65.2067 439.5 65.79C438.917 66.35 438.182 66.63 437.295 66.63ZM450.336 83.15L462.446 53.4H466.226L454.081 83.15H450.336ZM471.323 83.15L483.433 53.4H487.213L475.068 83.15H471.323ZM495.249 86.475V86.02C496.602 84.4567 497.781 82.835 498.784 81.155C499.787 79.4983 500.569 77.6783 501.129 75.695C501.689 73.7117 501.969 71.495 501.969 69.045C501.969 66.5717 501.689 64.355 501.129 62.395C500.569 60.4117 499.787 58.5917 498.784 56.935C497.781 55.255 496.602 53.6333 495.249 52.07V51.615H499.029C500.266 53.015 501.386 54.555 502.389 56.235C503.416 57.8917 504.221 59.77 504.804 61.87C505.411 63.9467 505.714 66.3383 505.714 69.045C505.714 71.7283 505.411 74.12 504.804 76.22C504.221 78.32 503.416 80.1983 502.389 81.855C501.386 83.535 500.266 85.075 499.029 86.475H495.249ZM669.37 86.475C668.133 85.075 667.001 83.535 665.975 81.855C664.971 80.1983 664.166 78.32 663.56 76.22C662.976 74.12 662.685 71.7283 662.685 69.045C662.685 66.3383 662.976 63.9467 663.56 61.87C664.166 59.77 664.971 57.8917 665.975 56.235C667.001 54.555 668.133 53.015 669.37 51.615H673.15V52.07C671.796 53.6333 670.618 55.255 669.615 56.935C668.611 58.5917 667.83 60.4117 667.27 62.395C666.71 64.355 666.43 66.5717 666.43 69.045C666.43 71.495 666.71 73.7117 667.27 75.695C667.83 77.6783 668.611 79.4983 669.615 81.155C670.618 82.835 671.796 84.4567 673.15 86.02V86.475H669.37ZM682.691 80L678.911 62.64H682.551L684.651 74.82L687.136 62.64H691.126L693.611 74.82L695.711 62.64H699.351L695.571 80H691.756L689.131 67.47L686.506 80H682.691ZM703.677 80L699.897 62.64H703.537L705.637 74.82L708.122 62.64H712.112L714.597 74.82L716.697 62.64H720.337L716.557 80H712.742L710.117 67.47L707.492 80H703.677ZM724.664 80L720.884 62.64H724.524L726.624 74.82L729.109 62.64H733.099L735.584 74.82L737.684 62.64H741.324L737.544 80H733.729L731.104 67.47L728.479 80H724.664ZM752.09 80.21C751.227 80.21 750.492 79.93 749.885 79.37C749.278 78.7867 748.975 78.0867 748.975 77.27C748.975 76.4533 749.278 75.765 749.885 75.205C750.492 74.645 751.227 74.365 752.09 74.365C752.977 74.365 753.712 74.645 754.295 75.205C754.902 75.765 755.205 76.4533 755.205 77.27C755.205 78.0867 754.902 78.7867 754.295 79.37C753.712 79.93 752.977 80.21 752.09 80.21ZM768.071 86.475V86.02C769.425 84.4567 770.603 82.835 771.606 81.155C772.61 79.4983 773.391 77.6783 773.951 75.695C774.511 73.7117 774.791 71.495 774.791 69.045C774.791 66.5717 774.511 64.355 773.951 62.395C773.391 60.4117 772.61 58.5917 771.606 56.935C770.603 55.255 769.425 53.6333 768.071 52.07V51.615H771.851C773.088 53.015 774.208 54.555 775.211 56.235C776.238 57.8917 777.043 59.77 777.626 61.87C778.233 63.9467 778.536 66.3383 778.536 69.045C778.536 71.7283 778.233 74.12 777.626 76.22C777.043 78.32 776.238 80.1983 775.211 81.855C774.208 83.535 773.088 85.075 771.851 86.475H768.071ZM1049.15 86.475C1047.4 86.475 1046 86.02 1044.95 85.11C1043.9 84.2 1043.38 82.835 1043.38 81.015C1043.38 80.1283 1043.44 79.335 1043.55 78.635C1043.69 77.935 1043.82 77.2117 1043.94 76.465C1044.08 75.7183 1044.15 74.855 1044.15 73.875C1044.15 72.965 1043.88 72.2067 1043.34 71.6C1042.83 70.9933 1041.96 70.69 1040.72 70.69H1039.14V67.4H1040.72C1041.96 67.4 1042.83 67.0967 1043.34 66.49C1043.88 65.8833 1044.15 65.125 1044.15 64.215C1044.15 63.2117 1044.08 62.3483 1043.94 61.625C1043.82 60.8783 1043.69 60.155 1043.55 59.455C1043.44 58.7317 1043.38 57.9267 1043.38 57.04C1043.38 55.2433 1043.9 53.89 1044.95 52.98C1046 52.07 1047.4 51.615 1049.15 51.615H1052.72V54.87H1049.71C1048.8 54.87 1048.12 55.08 1047.65 55.5C1047.21 55.92 1046.98 56.6083 1046.98 57.565C1046.98 58.335 1047.04 59.0467 1047.16 59.7C1047.28 60.3533 1047.39 61.03 1047.51 61.73C1047.63 62.43 1047.68 63.2467 1047.68 64.18C1047.68 65.4167 1047.42 66.455 1046.88 67.295C1046.37 68.1117 1045.67 68.66 1044.78 68.94V69.15C1045.67 69.43 1046.37 69.99 1046.88 70.83C1047.42 71.6467 1047.68 72.6733 1047.68 73.91C1047.68 74.8433 1047.63 75.66 1047.51 76.36C1047.39 77.06 1047.28 77.7367 1047.16 78.39C1047.04 79.02 1046.98 79.7317 1046.98 80.525C1046.98 81.4583 1047.21 82.135 1047.65 82.555C1048.12 82.9983 1048.8 83.22 1049.71 83.22H1052.72V86.475H1049.15ZM1065.31 80.42C1063.93 80.42 1062.78 80.1867 1061.84 79.72C1060.91 79.23 1060.21 78.5883 1059.74 77.795C1059.28 76.9783 1059.04 76.0917 1059.04 75.135C1059.04 73.4317 1059.66 72.1017 1060.9 71.145C1062.16 70.1883 1063.93 69.71 1066.22 69.71H1070.7V69.325C1070.7 66.7117 1069.49 65.405 1067.06 65.405C1066.06 65.405 1065.2 65.6267 1064.5 66.07C1063.83 66.49 1063.37 67.1783 1063.14 68.135H1059.43C1059.62 66.315 1060.4 64.88 1061.77 63.83C1063.17 62.7567 1064.94 62.22 1067.06 62.22C1069.63 62.22 1071.49 62.85 1072.66 64.11C1073.83 65.37 1074.41 67.1083 1074.41 69.325V80H1071.26L1070.94 77.445H1070.7C1070.19 78.2617 1069.54 78.9617 1068.77 79.545C1068 80.1283 1066.85 80.42 1065.31 80.42ZM1066.01 77.305C1067.53 77.305 1068.66 76.85 1069.4 75.94C1070.17 75.0067 1070.59 73.8283 1070.66 72.405H1066.6C1065.27 72.405 1064.33 72.6267 1063.77 73.07C1063.23 73.49 1062.96 74.085 1062.96 74.855C1062.96 75.625 1063.23 76.2317 1063.77 76.675C1064.33 77.095 1065.08 77.305 1066.01 77.305ZM1080.1 80V62.64H1083.32L1083.64 65.23H1083.81C1084.28 64.39 1085 63.6783 1085.98 63.095C1086.96 62.5117 1088.09 62.22 1089.38 62.22C1091.5 62.22 1093.1 62.8617 1094.17 64.145C1095.24 65.4283 1095.78 67.3183 1095.78 69.815V80H1092.07V70.27C1092.07 68.8233 1091.77 67.7033 1091.16 66.91C1090.55 66.1167 1089.6 65.72 1088.29 65.72C1087.01 65.72 1085.93 66.1517 1085.07 67.015C1084.23 67.8783 1083.81 69.1267 1083.81 70.76V80H1080.1ZM1103.36 87.7L1107.49 78.565H1106.48L1099.72 62.64H1103.75L1108.93 75.345L1114.42 62.64H1118.31L1107.28 87.7H1103.36ZM1123.02 86.475V83.22H1126.03C1126.94 83.22 1127.62 82.9983 1128.06 82.555C1128.53 82.135 1128.76 81.4583 1128.76 80.525C1128.76 79.7317 1128.7 79.02 1128.58 78.39C1128.47 77.7367 1128.35 77.06 1128.23 76.36C1128.12 75.66 1128.06 74.8433 1128.06 73.91C1128.06 72.6733 1128.33 71.6467 1128.86 70.83C1129.4 69.99 1130.1 69.43 1130.96 69.15V68.94C1130.1 68.66 1129.4 68.1117 1128.86 67.295C1128.33 66.455 1128.06 65.4167 1128.06 64.18C1128.06 63.2467 1128.12 62.43 1128.23 61.73C1128.35 61.03 1128.47 60.3533 1128.58 59.7C1128.7 59.0467 1128.76 58.335 1128.76 57.565C1128.76 56.6083 1128.53 55.92 1128.06 55.5C1127.62 55.08 1126.94 54.87 1126.03 54.87H1123.02V51.615H1126.59C1128.34 51.615 1129.74 52.07 1130.79 52.98C1131.84 53.89 1132.36 55.2433 1132.36 57.04C1132.36 57.9267 1132.29 58.7317 1132.15 59.455C1132.04 60.155 1131.91 60.8783 1131.77 61.625C1131.65 62.3483 1131.59 63.2117 1131.59 64.215C1131.59 65.125 1131.85 65.8833 1132.36 66.49C1132.9 67.0967 1133.79 67.4 1135.02 67.4H1136.6V70.69H1135.02C1133.79 70.69 1132.9 70.9933 1132.36 71.6C1131.85 72.2067 1131.59 72.965 1131.59 73.875C1131.59 74.855 1131.65 75.7183 1131.77 76.465C1131.91 77.2117 1132.04 77.935 1132.15 78.635C1132.29 79.335 1132.36 80.1283 1132.36 81.015C1132.36 82.835 1131.84 84.2 1130.79 85.11C1129.74 86.02 1128.34 86.475 1126.59 86.475H1123.02ZM1298.96 86.475C1297.72 85.075 1296.59 83.535 1295.56 81.855C1294.56 80.1983 1293.76 78.32 1293.15 76.22C1292.57 74.12 1292.27 71.7283 1292.27 69.045C1292.27 66.3383 1292.57 63.9467 1293.15 61.87C1293.76 59.77 1294.56 57.8917 1295.56 56.235C1296.59 54.555 1297.72 53.015 1298.96 51.615H1302.74V52.07C1301.39 53.6333 1300.21 55.255 1299.2 56.935C1298.2 58.5917 1297.42 60.4117 1296.86 62.395C1296.3 64.355 1296.02 66.5717 1296.02 69.045C1296.02 71.495 1296.3 73.7117 1296.86 75.695C1297.42 77.6783 1298.2 79.4983 1299.2 81.155C1300.21 82.835 1301.39 84.4567 1302.74 86.02V86.475H1298.96ZM1318.72 80.21C1317.86 80.21 1317.12 79.93 1316.52 79.37C1315.91 78.7867 1315.61 78.0867 1315.61 77.27C1315.61 76.4533 1315.91 75.765 1316.52 75.205C1317.12 74.645 1317.86 74.365 1318.72 74.365C1319.61 74.365 1320.34 74.645 1320.93 75.205C1321.53 75.765 1321.84 76.4533 1321.84 77.27C1321.84 78.0867 1321.53 78.7867 1320.93 79.37C1320.34 79.93 1319.61 80.21 1318.72 80.21ZM1339.95 80.42C1338.34 80.42 1336.9 80.0467 1335.61 79.3C1334.35 78.5533 1333.36 77.5033 1332.64 76.15C1331.91 74.7733 1331.55 73.1633 1331.55 71.32C1331.55 69.4767 1331.91 67.8783 1332.64 66.525C1333.38 65.1717 1334.39 64.1217 1335.65 63.375C1336.91 62.605 1338.34 62.22 1339.95 62.22C1342.17 62.22 1343.95 62.78 1345.31 63.9C1346.68 64.9967 1347.56 66.5133 1347.93 68.45H1344.05C1343.81 67.61 1343.34 66.945 1342.61 66.455C1341.91 65.965 1341.01 65.72 1339.92 65.72C1339.12 65.72 1338.37 65.93 1337.64 66.35C1336.94 66.77 1336.37 67.4 1335.93 68.24C1335.51 69.0567 1335.3 70.0833 1335.3 71.32C1335.3 72.5333 1335.51 73.56 1335.93 74.4C1336.37 75.24 1336.94 75.8817 1337.64 76.325C1338.37 76.745 1339.12 76.955 1339.92 76.955C1341.04 76.955 1341.94 76.71 1342.61 76.22C1343.29 75.73 1343.77 75.0533 1344.05 74.19H1347.93C1347.47 76.1033 1346.56 77.62 1345.2 78.74C1343.85 79.86 1342.1 80.42 1339.95 80.42ZM1360.69 80.42C1359.04 80.42 1357.56 80.0467 1356.25 79.3C1354.94 78.5533 1353.92 77.5033 1353.17 76.15C1352.42 74.7733 1352.05 73.1633 1352.05 71.32C1352.05 69.4767 1352.42 67.8783 1353.17 66.525C1353.92 65.1483 1354.94 64.0867 1356.25 63.34C1357.56 62.5933 1359.05 62.22 1360.73 62.22C1362.41 62.22 1363.89 62.5933 1365.17 63.34C1366.48 64.0867 1367.5 65.1483 1368.22 66.525C1368.97 67.8783 1369.34 69.4767 1369.34 71.32C1369.34 73.1633 1368.97 74.7733 1368.22 76.15C1367.47 77.5033 1366.45 78.5533 1365.14 79.3C1363.86 80.0467 1362.37 80.42 1360.69 80.42ZM1360.69 76.885C1361.58 76.885 1362.4 76.6867 1363.14 76.29C1363.89 75.8933 1364.49 75.2867 1364.93 74.47C1365.4 73.63 1365.63 72.58 1365.63 71.32C1365.63 70.0367 1365.4 68.9867 1364.93 68.17C1364.49 67.3533 1363.89 66.7467 1363.14 66.35C1362.42 65.9533 1361.62 65.755 1360.73 65.755C1359.84 65.755 1359.03 65.9533 1358.28 66.35C1357.53 66.7467 1356.93 67.3533 1356.46 68.17C1356.02 68.9867 1355.79 70.0367 1355.79 71.32C1355.79 73.2333 1356.27 74.645 1357.23 75.555C1358.21 76.4417 1359.36 76.885 1360.69 76.885ZM1372.05 80V62.64H1375.13L1375.45 64.67H1375.62C1375.93 63.9467 1376.39 63.3633 1377.02 62.92C1377.65 62.4533 1378.4 62.22 1379.26 62.22C1380.1 62.22 1380.84 62.43 1381.47 62.85C1382.1 63.27 1382.57 63.8767 1382.87 64.67H1383.01C1383.31 63.97 1383.79 63.3867 1384.44 62.92C1385.1 62.4533 1385.9 62.22 1386.86 62.22C1388.14 62.22 1389.11 62.64 1389.76 63.48C1390.44 64.32 1390.78 65.4983 1390.78 67.015V80H1387.21V67.75C1387.21 67.05 1387.06 66.5017 1386.75 66.105C1386.47 65.685 1386.02 65.475 1385.39 65.475C1384.76 65.475 1384.23 65.72 1383.81 66.21C1383.42 66.7 1383.22 67.3883 1383.22 68.275V80H1379.61V67.75C1379.61 67.05 1379.47 66.5017 1379.19 66.105C1378.91 65.685 1378.46 65.475 1377.83 65.475C1377.2 65.475 1376.67 65.72 1376.25 66.21C1375.83 66.7 1375.62 67.3883 1375.62 68.275V80H1372.05ZM1397.66 86.475V86.02C1399.01 84.4567 1400.19 82.835 1401.2 81.155C1402.2 79.4983 1402.98 77.6783 1403.54 75.695C1404.1 73.7117 1404.38 71.495 1404.38 69.045C1404.38 66.5717 1404.1 64.355 1403.54 62.395C1402.98 60.4117 1402.2 58.5917 1401.2 56.935C1400.19 55.255 1399.01 53.6333 1397.66 52.07V51.615H1401.44C1402.68 53.015 1403.8 54.555 1404.8 56.235C1405.83 57.8917 1406.63 59.77 1407.22 61.87C1407.82 63.9467 1408.13 66.3383 1408.13 69.045C1408.13 71.7283 1407.82 74.12 1407.22 76.22C1406.63 78.32 1405.83 80.1983 1404.8 81.855C1403.8 83.535 1402.68 85.075 1401.44 86.475H1397.66ZM1422.81 86.475C1421.53 86.475 1420.54 86.125 1419.84 85.425C1419.16 84.7483 1418.82 83.7683 1418.82 82.485V55.605C1418.82 54.3217 1419.16 53.3417 1419.84 52.665C1420.54 51.965 1421.53 51.615 1422.81 51.615H1428.34V54.87H1423.44C1422.7 54.87 1422.32 55.2433 1422.32 55.99V82.03C1422.32 82.7767 1422.7 83.15 1423.44 83.15H1428.34V86.475H1422.81ZM1444.64 80.42C1442.98 80.42 1441.5 80.0467 1440.19 79.3C1438.89 78.5533 1437.86 77.5033 1437.11 76.15C1436.37 74.7733 1435.99 73.1633 1435.99 71.32C1435.99 69.4767 1436.37 67.8783 1437.11 66.525C1437.86 65.1483 1438.89 64.0867 1440.19 63.34C1441.5 62.5933 1442.99 62.22 1444.67 62.22C1446.35 62.22 1447.84 62.5933 1449.12 63.34C1450.43 64.0867 1451.44 65.1483 1452.16 66.525C1452.91 67.8783 1453.28 69.4767 1453.28 71.32C1453.28 73.1633 1452.91 74.7733 1452.16 76.15C1451.42 77.5033 1450.39 78.5533 1449.08 79.3C1447.8 80.0467 1446.32 80.42 1444.64 80.42ZM1444.64 76.885C1445.53 76.885 1446.34 76.6867 1447.09 76.29C1447.84 75.8933 1448.43 75.2867 1448.87 74.47C1449.34 73.63 1449.57 72.58 1449.57 71.32C1449.57 70.0367 1449.34 68.9867 1448.87 68.17C1448.43 67.3533 1447.84 66.7467 1447.09 66.35C1446.37 65.9533 1445.56 65.755 1444.67 65.755C1443.79 65.755 1442.97 65.9533 1442.22 66.35C1441.48 66.7467 1440.87 67.3533 1440.4 68.17C1439.96 68.9867 1439.74 70.0367 1439.74 71.32C1439.74 73.2333 1440.22 74.645 1441.17 75.555C1442.15 76.4417 1443.31 76.885 1444.64 76.885ZM1457.82 80V76.78H1462.06V67.015C1462.06 66.245 1461.68 65.86 1460.94 65.86H1458.17V62.64H1462.34C1463.29 62.64 1464.07 62.92 1464.68 63.48C1465.29 64.0167 1465.59 64.775 1465.59 65.755V66.175H1465.77C1466.02 64.8683 1466.57 63.8883 1467.41 63.235C1468.27 62.5583 1469.52 62.22 1471.16 62.22H1473.85V66.14H1470.07C1468.69 66.14 1467.63 66.6183 1466.89 67.575C1466.14 68.5317 1465.77 69.675 1465.77 71.005V76.78H1471.16V80H1457.82ZM1481.92 86.475V83.15H1486.82C1487.57 83.15 1487.94 82.7767 1487.94 82.03V55.99C1487.94 55.2433 1487.57 54.87 1486.82 54.87H1481.92V51.615H1487.45C1488.73 51.615 1489.71 51.965 1490.39 52.665C1491.09 53.3417 1491.44 54.3217 1491.44 55.605V82.485C1491.44 83.7683 1491.09 84.7483 1490.39 85.425C1489.71 86.125 1488.73 86.475 1487.45 86.475H1481.92ZM1634.74 86.475C1633.5 85.075 1632.37 83.535 1631.35 81.855C1630.34 80.1983 1629.54 78.32 1628.93 76.22C1628.35 74.12 1628.06 71.7283 1628.06 69.045C1628.06 66.3383 1628.35 63.9467 1628.93 61.87C1629.54 59.77 1630.34 57.8917 1631.35 56.235C1632.37 54.555 1633.5 53.015 1634.74 51.615H1638.52V52.07C1637.17 53.6333 1635.99 55.255 1634.99 56.935C1633.98 58.5917 1633.2 60.4117 1632.64 62.395C1632.08 64.355 1631.8 66.5717 1631.8 69.045C1631.8 71.495 1632.08 73.7117 1632.64 75.695C1633.2 77.6783 1633.98 79.4983 1634.99 81.155C1635.99 82.835 1637.17 84.4567 1638.52 86.02V86.475H1634.74ZM1654.5 80.21C1653.64 80.21 1652.9 79.93 1652.3 79.37C1651.69 78.7867 1651.39 78.0867 1651.39 77.27C1651.39 76.4533 1651.69 75.765 1652.3 75.205C1652.9 74.645 1653.64 74.365 1654.5 74.365C1655.39 74.365 1656.12 74.645 1656.71 75.205C1657.31 75.765 1657.62 76.4533 1657.62 77.27C1657.62 78.0867 1657.31 78.7867 1656.71 79.37C1656.12 79.93 1655.39 80.21 1654.5 80.21ZM1667.72 80V62.64H1670.94L1671.25 65.23H1671.43C1671.89 64.39 1672.62 63.6783 1673.6 63.095C1674.58 62.5117 1675.71 62.22 1676.99 62.22C1679.12 62.22 1680.71 62.8617 1681.79 64.145C1682.86 65.4283 1683.4 67.3183 1683.4 69.815V80H1679.69V70.27C1679.69 68.8233 1679.38 67.7033 1678.78 66.91C1678.17 66.1167 1677.21 65.72 1675.91 65.72C1674.62 65.72 1673.55 66.1517 1672.69 67.015C1671.85 67.8783 1671.43 69.1267 1671.43 70.76V80H1667.72ZM1696.68 80.42C1695 80.42 1693.52 80.0467 1692.24 79.3C1690.96 78.53 1689.95 77.4683 1689.23 76.115C1688.51 74.7617 1688.14 73.1867 1688.14 71.39C1688.14 69.57 1688.49 67.9717 1689.19 66.595C1689.92 65.2183 1690.92 64.145 1692.2 63.375C1693.51 62.605 1695.02 62.22 1696.72 62.22C1698.4 62.22 1699.85 62.605 1701.06 63.375C1702.27 64.1217 1703.21 65.125 1703.86 66.385C1704.54 67.645 1704.87 69.0333 1704.87 70.55C1704.87 70.7833 1704.87 71.04 1704.87 71.32C1704.87 71.5767 1704.86 71.8683 1704.84 72.195H1691.78C1691.9 73.805 1692.43 75.03 1693.36 75.87C1694.29 76.6867 1695.39 77.095 1696.65 77.095C1697.75 77.095 1698.61 76.8733 1699.24 76.43C1699.89 75.9633 1700.37 75.3333 1700.67 74.54H1704.42C1704 76.1967 1703.12 77.5967 1701.79 78.74C1700.46 79.86 1698.76 80.42 1696.68 80.42ZM1696.68 65.44C1695.54 65.44 1694.53 65.79 1693.64 66.49C1692.75 67.1667 1692.18 68.1233 1691.92 69.36H1701.16C1701.07 68.1933 1700.62 67.2483 1699.8 66.525C1698.98 65.8017 1697.94 65.44 1696.68 65.44ZM1719.35 80C1717.65 80 1716.29 79.5917 1715.29 78.775C1714.29 77.935 1713.79 76.4533 1713.79 74.33V65.79H1709.41V62.64H1712C1713.19 62.64 1713.89 62.0567 1714.1 60.89L1714.63 58.09H1717.5V62.64H1724.36V65.79H1717.5V74.26C1717.5 75.17 1717.69 75.8117 1718.09 76.185C1718.51 76.535 1719.22 76.71 1720.23 76.71H1724.29V80H1719.35ZM1733.44 86.475V86.02C1734.8 84.4567 1735.97 82.835 1736.98 81.155C1737.98 79.4983 1738.76 77.6783 1739.32 75.695C1739.88 73.7117 1740.16 71.495 1740.16 69.045C1740.16 66.5717 1739.88 64.355 1739.32 62.395C1738.76 60.4117 1737.98 58.5917 1736.98 56.935C1735.97 55.255 1734.8 53.6333 1733.44 52.07V51.615H1737.22C1738.46 53.015 1739.58 54.555 1740.58 56.235C1741.61 57.8917 1742.41 59.77 1743 61.87C1743.6 63.9467 1743.91 66.3383 1743.91 69.045C1743.91 71.7283 1743.6 74.12 1743 76.22C1742.41 78.32 1741.61 80.1983 1740.58 81.855C1739.58 83.535 1738.46 85.075 1737.22 86.475H1733.44Z" fill="#2D2929"/>
<path d="M814.209 86.475C812.925 86.475 811.934 86.125 811.234 85.425C810.557 84.7483 810.219 83.7683 810.219 82.485V55.605C810.219 54.3217 810.557 53.3417 811.234 52.665C811.934 51.965 812.925 51.615 814.209 51.615H819.739V54.87H814.839C814.092 54.87 813.719 55.2433 813.719 55.99V82.03C813.719 82.7767 814.092 83.15 814.839 83.15H819.739V86.475H814.209ZM836.28 80.42C834.67 80.42 833.223 80.0467 831.94 79.3C830.68 78.5533 829.688 77.5033 828.965 76.15C828.242 74.7733 827.88 73.1633 827.88 71.32C827.88 69.4767 828.242 67.8783 828.965 66.525C829.712 65.1717 830.715 64.1217 831.975 63.375C833.235 62.605 834.67 62.22 836.28 62.22C838.497 62.22 840.282 62.78 841.635 63.9C843.012 64.9967 843.887 66.5133 844.26 68.45H840.375C840.142 67.61 839.663 66.945 838.94 66.455C838.24 65.965 837.342 65.72 836.245 65.72C835.452 65.72 834.693 65.93 833.97 66.35C833.27 66.77 832.698 67.4 832.255 68.24C831.835 69.0567 831.625 70.0833 831.625 71.32C831.625 72.5333 831.835 73.56 832.255 74.4C832.698 75.24 833.27 75.8817 833.97 76.325C834.693 76.745 835.452 76.955 836.245 76.955C837.365 76.955 838.263 76.71 838.94 76.22C839.617 75.73 840.095 75.0533 840.375 74.19H844.26C843.793 76.1033 842.883 77.62 841.53 78.74C840.177 79.86 838.427 80.42 836.28 80.42ZM849.076 80V54.8H852.786V65.23C853.253 64.3667 854 63.655 855.026 63.095C856.053 62.5117 857.208 62.22 858.491 62.22C860.638 62.22 862.271 62.8733 863.391 64.18C864.511 65.4633 865.071 67.3183 865.071 69.745V80H861.361V70.27C861.361 68.8233 861.011 67.7033 860.311 66.91C859.611 66.1167 858.643 65.72 857.406 65.72C856.123 65.72 855.026 66.1517 854.116 67.015C853.23 67.8783 852.786 69.1267 852.786 70.76V80H849.076ZM876.433 80.42C875.056 80.42 873.901 80.1867 872.968 79.72C872.034 79.23 871.334 78.5883 870.868 77.795C870.401 76.9783 870.168 76.0917 870.168 75.135C870.168 73.4317 870.786 72.1017 872.023 71.145C873.283 70.1883 875.056 69.71 877.343 69.71H881.823V69.325C881.823 66.7117 880.609 65.405 878.183 65.405C877.179 65.405 876.328 65.6267 875.628 66.07C874.951 66.49 874.496 67.1783 874.263 68.135H870.553C870.739 66.315 871.521 64.88 872.898 63.83C874.298 62.7567 876.059 62.22 878.183 62.22C880.749 62.22 882.616 62.85 883.783 64.11C884.949 65.37 885.533 67.1083 885.533 69.325V80H882.383L882.068 77.445H881.823C881.309 78.2617 880.668 78.9617 879.898 79.545C879.128 80.1283 877.973 80.42 876.433 80.42ZM877.133 77.305C878.649 77.305 879.781 76.85 880.528 75.94C881.298 75.0067 881.718 73.8283 881.788 72.405H877.728C876.398 72.405 875.453 72.6267 874.893 73.07C874.356 73.49 874.088 74.085 874.088 74.855C874.088 75.625 874.356 76.2317 874.893 76.675C875.453 77.095 876.199 77.305 877.133 77.305ZM891.189 80V76.78H895.424V67.015C895.424 66.245 895.051 65.86 894.304 65.86H891.539V62.64H895.704C896.661 62.64 897.442 62.92 898.049 63.48C898.656 64.0167 898.959 64.775 898.959 65.755V66.175H899.134C899.391 64.8683 899.939 63.8883 900.779 63.235C901.642 62.5583 902.891 62.22 904.524 62.22H907.219V66.14H903.439C902.062 66.14 901.001 66.6183 900.254 67.575C899.507 68.5317 899.134 69.675 899.134 71.005V76.78H904.524V80H891.189ZM918.405 80.42C917.029 80.42 915.874 80.1867 914.94 79.72C914.007 79.23 913.307 78.5883 912.84 77.795C912.374 76.9783 912.14 76.0917 912.14 75.135C912.14 73.4317 912.759 72.1017 913.995 71.145C915.255 70.1883 917.029 69.71 919.315 69.71H923.795V69.325C923.795 66.7117 922.582 65.405 920.155 65.405C919.152 65.405 918.3 65.6267 917.6 66.07C916.924 66.49 916.469 67.1783 916.235 68.135H912.525C912.712 66.315 913.494 64.88 914.87 63.83C916.27 62.7567 918.032 62.22 920.155 62.22C922.722 62.22 924.589 62.85 925.755 64.11C926.922 65.37 927.505 67.1083 927.505 69.325V80H924.355L924.04 77.445H923.795C923.282 78.2617 922.64 78.9617 921.87 79.545C921.1 80.1283 919.945 80.42 918.405 80.42ZM919.105 77.305C920.622 77.305 921.754 76.85 922.5 75.94C923.27 75.0067 923.69 73.8283 923.76 72.405H919.7C918.37 72.405 917.425 72.6267 916.865 73.07C916.329 73.49 916.06 74.085 916.06 74.855C916.06 75.625 916.329 76.2317 916.865 76.675C917.425 77.095 918.172 77.305 919.105 77.305ZM941.212 80.42C939.602 80.42 938.155 80.0467 936.872 79.3C935.612 78.5533 934.62 77.5033 933.897 76.15C933.173 74.7733 932.812 73.1633 932.812 71.32C932.812 69.4767 933.173 67.8783 933.897 66.525C934.643 65.1717 935.647 64.1217 936.907 63.375C938.167 62.605 939.602 62.22 941.212 62.22C943.428 62.22 945.213 62.78 946.567 63.9C947.943 64.9967 948.818 66.5133 949.192 68.45H945.307C945.073 67.61 944.595 66.945 943.872 66.455C943.172 65.965 942.273 65.72 941.177 65.72C940.383 65.72 939.625 65.93 938.902 66.35C938.202 66.77 937.63 67.4 937.187 68.24C936.767 69.0567 936.557 70.0833 936.557 71.32C936.557 72.5333 936.767 73.56 937.187 74.4C937.63 75.24 938.202 75.8817 938.902 76.325C939.625 76.745 940.383 76.955 941.177 76.955C942.297 76.955 943.195 76.71 943.872 76.22C944.548 75.73 945.027 75.0533 945.307 74.19H949.192C948.725 76.1033 947.815 77.62 946.462 78.74C945.108 79.86 943.358 80.42 941.212 80.42ZM963.843 80C962.14 80 960.786 79.5917 959.783 78.775C958.78 77.935 958.278 76.4533 958.278 74.33V65.79H953.903V62.64H956.493C957.683 62.64 958.383 62.0567 958.593 60.89L959.118 58.09H961.988V62.64H968.848V65.79H961.988V74.26C961.988 75.17 962.186 75.8117 962.583 76.185C963.003 76.535 963.715 76.71 964.718 76.71H968.778V80H963.843ZM983.149 80.42C981.469 80.42 979.988 80.0467 978.704 79.3C977.421 78.53 976.418 77.4683 975.694 76.115C974.971 74.7617 974.609 73.1867 974.609 71.39C974.609 69.57 974.959 67.9717 975.659 66.595C976.383 65.2183 977.386 64.145 978.669 63.375C979.976 62.605 981.481 62.22 983.184 62.22C984.864 62.22 986.311 62.605 987.524 63.375C988.738 64.1217 989.671 65.125 990.324 66.385C991.001 67.645 991.339 69.0333 991.339 70.55C991.339 70.7833 991.339 71.04 991.339 71.32C991.339 71.5767 991.328 71.8683 991.304 72.195H978.249C978.366 73.805 978.891 75.03 979.824 75.87C980.758 76.6867 981.854 77.095 983.114 77.095C984.211 77.095 985.074 76.8733 985.704 76.43C986.358 75.9633 986.836 75.3333 987.139 74.54H990.884C990.464 76.1967 989.589 77.5967 988.259 78.74C986.929 79.86 985.226 80.42 983.149 80.42ZM983.149 65.44C982.006 65.44 980.991 65.79 980.104 66.49C979.218 67.1667 978.646 68.1233 978.389 69.36H987.629C987.536 68.1933 987.081 67.2483 986.264 66.525C985.448 65.8017 984.409 65.44 983.149 65.44ZM996.121 80V76.78H1000.36V67.015C1000.36 66.245 999.982 65.86 999.236 65.86H996.471V62.64H1000.64C1001.59 62.64 1002.37 62.92 1002.98 63.48C1003.59 64.0167 1003.89 64.775 1003.89 65.755V66.175H1004.07C1004.32 64.8683 1004.87 63.8883 1005.71 63.235C1006.57 62.5583 1007.82 62.22 1009.46 62.22H1012.15V66.14H1008.37C1006.99 66.14 1005.93 66.6183 1005.19 67.575C1004.44 68.5317 1004.07 69.675 1004.07 71.005V76.78H1009.46V80H996.121ZM1020.22 86.475V83.15H1025.12C1025.87 83.15 1026.24 82.7767 1026.24 82.03V55.99C1026.24 55.2433 1025.87 54.87 1025.12 54.87H1020.22V51.615H1025.75C1027.04 51.615 1028.02 51.965 1028.69 52.665C1029.39 53.3417 1029.74 54.3217 1029.74 55.605V82.485C1029.74 83.7683 1029.39 84.7483 1028.69 85.425C1028.02 86.125 1027.04 86.475 1025.75 86.475H1020.22Z" fill="#0075FF"/>
<path d="M313.555 235.15L325.665 205.4H329.445L317.3 235.15H313.555ZM343.711 238.475C342.475 237.075 341.343 235.535 340.316 233.855C339.313 232.198 338.508 230.32 337.901 228.22C337.318 226.12 337.026 223.728 337.026 221.045C337.026 218.338 337.318 215.947 337.901 213.87C338.508 211.77 339.313 209.892 340.316 208.235C341.343 206.555 342.475 205.015 343.711 203.615H347.491V204.07C346.138 205.633 344.96 207.255 343.956 208.935C342.953 210.592 342.171 212.412 341.611 214.395C341.051 216.355 340.771 218.572 340.771 221.045C340.771 223.495 341.051 225.712 341.611 227.695C342.171 229.678 342.953 231.498 343.956 233.155C344.96 234.835 346.138 236.457 347.491 238.02V238.475H343.711ZM360.323 224.3L360.113 218.91H361.443C363.403 218.91 364.884 218.548 365.888 217.825C366.914 217.078 367.428 215.923 367.428 214.36C367.428 213.17 367.043 212.213 366.273 211.49C365.526 210.767 364.488 210.405 363.158 210.405C361.898 210.405 360.883 210.755 360.113 211.455C359.343 212.132 358.899 213.053 358.783 214.22H355.283C355.329 212.82 355.668 211.583 356.298 210.51C356.928 209.437 357.826 208.597 358.993 207.99C360.159 207.383 361.548 207.08 363.158 207.08C365.654 207.08 367.591 207.733 368.968 209.04C370.344 210.323 371.033 212.073 371.033 214.29C371.033 215.853 370.683 217.16 369.983 218.21C369.283 219.237 368.361 220.03 367.218 220.59C366.098 221.127 364.896 221.453 363.613 221.57L363.508 224.3H360.323ZM361.828 232.21C360.964 232.21 360.229 231.93 359.623 231.37C359.016 230.787 358.713 230.087 358.713 229.27C358.713 228.453 359.016 227.765 359.623 227.205C360.229 226.645 360.964 226.365 361.828 226.365C362.714 226.365 363.449 226.645 364.033 227.205C364.639 227.765 364.943 228.453 364.943 229.27C364.943 230.087 364.639 230.787 364.033 231.37C363.449 231.93 362.714 232.21 361.828 232.21ZM386.559 229.305L377.249 219.715L386.559 210.23H391.529L382.289 219.61V219.89L391.529 229.305H386.559ZM397.325 217.02V213.695H413.565V217.02H397.325ZM397.325 225.805V222.48H413.565V225.805H397.325ZM418.487 232V206.8H422.197V217.23C422.663 216.367 423.41 215.655 424.437 215.095C425.463 214.512 426.618 214.22 427.902 214.22C430.048 214.22 431.682 214.873 432.802 216.18C433.922 217.463 434.482 219.318 434.482 221.745V232H430.772V222.27C430.772 220.823 430.422 219.703 429.722 218.91C429.022 218.117 428.053 217.72 426.817 217.72C425.533 217.72 424.437 218.152 423.527 219.015C422.64 219.878 422.197 221.127 422.197 222.76V232H418.487ZM449.308 232C447.605 232 446.251 231.592 445.248 230.775C444.245 229.935 443.743 228.453 443.743 226.33V217.79H439.368V214.64H441.958C443.148 214.64 443.848 214.057 444.058 212.89L444.583 210.09H447.453V214.64H454.313V217.79H447.453V226.26C447.453 227.17 447.651 227.812 448.048 228.185C448.468 228.535 449.18 228.71 450.183 228.71H454.243V232H449.308ZM470.294 232C468.591 232 467.238 231.592 466.234 230.775C465.231 229.935 464.729 228.453 464.729 226.33V217.79H460.354V214.64H462.944C464.134 214.64 464.834 214.057 465.044 212.89L465.569 210.09H468.439V214.64H475.299V217.79H468.439V226.26C468.439 227.17 468.638 227.812 469.034 228.185C469.454 228.535 470.166 228.71 471.169 228.71H475.229V232H470.294ZM481.306 239.7V214.64H484.526L484.806 217.3H485.016C485.482 216.437 486.182 215.713 487.116 215.13C488.072 214.523 489.204 214.22 490.511 214.22C491.864 214.22 493.101 214.57 494.221 215.27C495.341 215.947 496.227 216.962 496.881 218.315C497.557 219.645 497.896 221.313 497.896 223.32C497.896 225.303 497.546 226.972 496.846 228.325C496.169 229.678 495.247 230.705 494.081 231.405C492.914 232.082 491.607 232.42 490.161 232.42C488.877 232.42 487.804 232.163 486.941 231.65C486.077 231.137 485.436 230.553 485.016 229.9V239.7H481.306ZM489.531 228.885C490.837 228.885 491.922 228.418 492.786 227.485C493.672 226.552 494.116 225.152 494.116 223.285C494.116 221.418 493.672 220.03 492.786 219.12C491.922 218.21 490.837 217.755 489.531 217.755C488.201 217.755 487.092 218.222 486.206 219.155C485.342 220.065 484.911 221.453 484.911 223.32C484.911 225.163 485.342 226.552 486.206 227.485C487.092 228.418 488.201 228.885 489.531 228.885ZM510.517 232.42C508.23 232.42 506.41 231.883 505.057 230.81C503.704 229.737 502.934 228.313 502.747 226.54H506.562C506.702 227.357 507.11 228.022 507.787 228.535C508.487 229.048 509.409 229.305 510.552 229.305C511.649 229.305 512.489 229.083 513.072 228.64C513.679 228.173 513.982 227.637 513.982 227.03C513.982 226.143 513.62 225.537 512.897 225.21C512.197 224.883 511.159 224.638 509.782 224.475C508.592 224.335 507.507 224.067 506.527 223.67C505.57 223.25 504.812 222.69 504.252 221.99C503.692 221.267 503.412 220.368 503.412 219.295C503.412 217.778 504.007 216.553 505.197 215.62C506.387 214.687 508.044 214.22 510.167 214.22C512.29 214.22 513.935 214.698 515.102 215.655C516.269 216.612 516.945 217.918 517.132 219.575H513.562C513.469 218.875 513.107 218.327 512.477 217.93C511.847 217.51 511.065 217.3 510.132 217.3C509.175 217.3 508.417 217.487 507.857 217.86C507.297 218.21 507.017 218.677 507.017 219.26C507.017 220.52 508.37 221.29 511.077 221.57C512.36 221.71 513.504 221.955 514.507 222.305C515.51 222.632 516.304 223.157 516.887 223.88C517.47 224.58 517.762 225.572 517.762 226.855C517.785 227.905 517.482 228.85 516.852 229.69C516.245 230.53 515.394 231.195 514.297 231.685C513.224 232.175 511.964 232.42 510.517 232.42ZM531.363 232.21C530.5 232.21 529.765 231.93 529.158 231.37C528.552 230.787 528.248 230.087 528.248 229.27C528.248 228.453 528.552 227.765 529.158 227.205C529.765 226.645 530.5 226.365 531.363 226.365C532.25 226.365 532.985 226.645 533.568 227.205C534.175 227.765 534.478 228.453 534.478 229.27C534.478 230.087 534.175 230.787 533.568 231.37C532.985 231.93 532.25 232.21 531.363 232.21ZM531.363 218.63C530.5 218.63 529.765 218.35 529.158 217.79C528.552 217.207 528.248 216.507 528.248 215.69C528.248 214.873 528.552 214.185 529.158 213.625C529.765 213.065 530.5 212.785 531.363 212.785C532.25 212.785 532.985 213.065 533.568 213.625C534.175 214.185 534.478 214.873 534.478 215.69C534.478 216.507 534.175 217.207 533.568 217.79C532.985 218.35 532.25 218.63 531.363 218.63ZM556.55 235.15L544.405 205.4H548.185L560.295 235.15H556.55ZM565.391 235.15L577.501 205.4H581.281L569.136 235.15H565.391ZM598.522 235.15L586.377 205.4H590.157L602.267 235.15H598.522ZM607.364 235.15L619.474 205.4H623.254L611.109 235.15H607.364ZM631.29 238.475V238.02C632.643 236.457 633.822 234.835 634.825 233.155C635.828 231.498 636.61 229.678 637.17 227.695C637.73 225.712 638.01 223.495 638.01 221.045C638.01 218.572 637.73 216.355 637.17 214.395C636.61 212.412 635.828 210.592 634.825 208.935C633.822 207.255 632.643 205.633 631.29 204.07V203.615H635.07C636.307 205.015 637.427 206.555 638.43 208.235C639.457 209.892 640.262 211.77 640.845 213.87C641.452 215.947 641.755 218.338 641.755 221.045C641.755 223.728 641.452 226.12 640.845 228.22C640.262 230.32 639.457 232.198 638.43 233.855C637.427 235.535 636.307 237.075 635.07 238.475H631.29ZM650.841 232L647.061 214.64H650.701L652.801 226.82L655.286 214.64H659.276L661.761 226.82L663.861 214.64H667.501L663.721 232H659.906L657.281 219.47L654.656 232H650.841ZM671.828 232L668.048 214.64H671.688L673.788 226.82L676.273 214.64H680.263L682.748 226.82L684.848 214.64H688.488L684.708 232H680.893L678.268 219.47L675.643 232H671.828ZM692.814 232L689.034 214.64H692.674L694.774 226.82L697.259 214.64H701.249L703.734 226.82L705.834 214.64H709.474L705.694 232H701.879L699.254 219.47L696.629 232H692.814ZM724.44 235.15L712.295 205.4H716.075L728.185 235.15H724.44ZM741.227 232.21C740.363 232.21 739.628 231.93 739.022 231.37C738.415 230.787 738.112 230.087 738.112 229.27C738.112 228.453 738.415 227.765 739.022 227.205C739.628 226.645 740.363 226.365 741.227 226.365C742.113 226.365 742.848 226.645 743.432 227.205C744.038 227.765 744.342 228.453 744.342 229.27C744.342 230.087 744.038 230.787 743.432 231.37C742.848 231.93 742.113 232.21 741.227 232.21ZM761.373 238.475C760.09 238.475 759.098 238.125 758.398 237.425C757.721 236.748 757.383 235.768 757.383 234.485V207.605C757.383 206.322 757.721 205.342 758.398 204.665C759.098 203.965 760.09 203.615 761.373 203.615H766.903V206.87H762.003C761.256 206.87 760.883 207.243 760.883 207.99V234.03C760.883 234.777 761.256 235.15 762.003 235.15H766.903V238.475H761.373ZM773.679 232L780.994 207.5H785.404L792.719 232H788.694L787.049 226.12H779.349L777.704 232H773.679ZM783.094 212.75L780.189 223.145H786.209L783.304 212.75H783.094ZM798.166 221.325V218.175H810.206V221.325H798.166ZM816.842 232V228.955L829.092 210.825H817.017V207.5H833.397V210.545L821.147 228.675H833.537V232H816.842ZM844.583 232.42C843.207 232.42 842.052 232.187 841.118 231.72C840.185 231.23 839.485 230.588 839.018 229.795C838.552 228.978 838.318 228.092 838.318 227.135C838.318 225.432 838.937 224.102 840.173 223.145C841.433 222.188 843.207 221.71 845.493 221.71H849.973V221.325C849.973 218.712 848.76 217.405 846.333 217.405C845.33 217.405 844.478 217.627 843.778 218.07C843.102 218.49 842.647 219.178 842.413 220.135H838.703C838.89 218.315 839.672 216.88 841.048 215.83C842.448 214.757 844.21 214.22 846.333 214.22C848.9 214.22 850.767 214.85 851.933 216.11C853.1 217.37 853.683 219.108 853.683 221.325V232H850.533L850.218 229.445H849.973C849.46 230.262 848.818 230.962 848.048 231.545C847.278 232.128 846.123 232.42 844.583 232.42ZM845.283 229.305C846.8 229.305 847.932 228.85 848.678 227.94C849.448 227.007 849.868 225.828 849.938 224.405H845.878C844.548 224.405 843.603 224.627 843.043 225.07C842.507 225.49 842.238 226.085 842.238 226.855C842.238 227.625 842.507 228.232 843.043 228.675C843.603 229.095 844.35 229.305 845.283 229.305ZM861.125 221.325V218.175H873.165V221.325H861.125ZM880.921 232V228.675L890.546 218.035H881.061V214.64H895.166V217.965L885.436 228.605H895.341V232H880.921ZM913.317 235.15L901.172 205.4H904.952L917.062 235.15H913.317ZM928.564 232.42C926.464 232.42 924.865 231.778 923.769 230.495C922.695 229.188 922.159 227.298 922.159 224.825V214.64H925.869V224.37C925.869 225.793 926.172 226.913 926.779 227.73C927.409 228.523 928.365 228.92 929.649 228.92C930.932 228.92 932.005 228.488 932.869 227.625C933.732 226.762 934.164 225.513 934.164 223.88V214.64H937.874V232H934.654L934.339 229.41H934.164C933.697 230.25 932.974 230.962 931.994 231.545C931.014 232.128 929.87 232.42 928.564 232.42ZM951.09 232.42C949.2 232.42 947.543 231.907 946.12 230.88C944.72 229.853 943.635 228.395 942.865 226.505C942.095 224.592 941.71 222.34 941.71 219.75C941.71 217.137 942.095 214.885 942.865 212.995C943.635 211.105 944.72 209.647 946.12 208.62C947.543 207.593 949.2 207.08 951.09 207.08C953.003 207.08 954.66 207.593 956.06 208.62C957.46 209.647 958.545 211.105 959.315 212.995C960.085 214.885 960.47 217.137 960.47 219.75C960.47 222.34 960.085 224.592 959.315 226.505C958.545 228.395 957.46 229.853 956.06 230.88C954.66 231.907 953.003 232.42 951.09 232.42ZM945.49 219.75C945.49 221.057 945.607 222.247 945.84 223.32C946.073 224.393 946.4 225.327 946.82 226.12L952.945 210.965C952.362 210.685 951.743 210.545 951.09 210.545C949.457 210.545 948.115 211.373 947.065 213.03C946.015 214.663 945.49 216.903 945.49 219.75ZM951.09 228.99C952.187 228.99 953.155 228.617 953.995 227.87C954.835 227.123 955.488 226.062 955.955 224.685C956.445 223.285 956.69 221.64 956.69 219.75C956.69 218.443 956.573 217.253 956.34 216.18C956.107 215.107 955.78 214.185 955.36 213.415L949.235 228.57C949.818 228.85 950.437 228.99 951.09 228.99ZM972.076 232.42C970.186 232.42 968.53 231.907 967.106 230.88C965.706 229.853 964.621 228.395 963.851 226.505C963.081 224.592 962.696 222.34 962.696 219.75C962.696 217.137 963.081 214.885 963.851 212.995C964.621 211.105 965.706 209.647 967.106 208.62C968.53 207.593 970.186 207.08 972.076 207.08C973.99 207.08 975.646 207.593 977.046 208.62C978.446 209.647 979.531 211.105 980.301 212.995C981.071 214.885 981.456 217.137 981.456 219.75C981.456 222.34 981.071 224.592 980.301 226.505C979.531 228.395 978.446 229.853 977.046 230.88C975.646 231.907 973.99 232.42 972.076 232.42ZM966.476 219.75C966.476 221.057 966.593 222.247 966.826 223.32C967.06 224.393 967.386 225.327 967.806 226.12L973.931 210.965C973.348 210.685 972.73 210.545 972.076 210.545C970.443 210.545 969.101 211.373 968.051 213.03C967.001 214.663 966.476 216.903 966.476 219.75ZM972.076 228.99C973.173 228.99 974.141 228.617 974.981 227.87C975.821 227.123 976.475 226.062 976.941 224.685C977.431 223.285 977.676 221.64 977.676 219.75C977.676 218.443 977.56 217.253 977.326 216.18C977.093 215.107 976.766 214.185 976.346 213.415L970.221 228.57C970.805 228.85 971.423 228.99 972.076 228.99ZM993.133 232.42C991.079 232.42 989.329 231.895 987.883 230.845C986.459 229.795 985.363 228.325 984.593 226.435C983.846 224.522 983.473 222.305 983.473 219.785C983.473 217.242 983.846 215.025 984.593 213.135C985.363 211.222 986.471 209.74 987.918 208.69C989.364 207.617 991.103 207.08 993.133 207.08C995.769 207.08 997.869 207.803 999.433 209.25C1001 210.673 1001.91 212.61 1002.16 215.06H998.068C997.858 213.777 997.333 212.715 996.493 211.875C995.676 211.012 994.544 210.58 993.098 210.58C991.254 210.58 989.819 211.397 988.793 213.03C987.766 214.663 987.253 216.915 987.253 219.785C987.253 222.632 987.766 224.872 988.793 226.505C989.819 228.115 991.254 228.92 993.098 228.92C994.591 228.92 995.734 228.535 996.528 227.765C997.321 226.972 997.834 225.933 998.068 224.65H1002.16C1001.79 227.053 1000.84 228.955 999.328 230.355C997.811 231.732 995.746 232.42 993.133 232.42ZM1014.05 232.42C1012.16 232.42 1010.5 231.907 1009.08 230.88C1007.68 229.853 1006.59 228.395 1005.82 226.505C1005.05 224.592 1004.67 222.34 1004.67 219.75C1004.67 217.137 1005.05 214.885 1005.82 212.995C1006.59 211.105 1007.68 209.647 1009.08 208.62C1010.5 207.593 1012.16 207.08 1014.05 207.08C1015.96 207.08 1017.62 207.593 1019.02 208.62C1020.42 209.647 1021.5 211.105 1022.27 212.995C1023.04 214.885 1023.43 217.137 1023.43 219.75C1023.43 222.34 1023.04 224.592 1022.27 226.505C1021.5 228.395 1020.42 229.853 1019.02 230.88C1017.62 231.907 1015.96 232.42 1014.05 232.42ZM1008.45 219.75C1008.45 221.057 1008.57 222.247 1008.8 223.32C1009.03 224.393 1009.36 225.327 1009.78 226.12L1015.9 210.965C1015.32 210.685 1014.7 210.545 1014.05 210.545C1012.42 210.545 1011.07 211.373 1010.02 213.03C1008.97 214.663 1008.45 216.903 1008.45 219.75ZM1014.05 228.99C1015.15 228.99 1016.11 228.617 1016.95 227.87C1017.79 227.123 1018.45 226.062 1018.91 224.685C1019.4 223.285 1019.65 221.64 1019.65 219.75C1019.65 218.443 1019.53 217.253 1019.3 216.18C1019.07 215.107 1018.74 214.185 1018.32 213.415L1012.19 228.57C1012.78 228.85 1013.4 228.99 1014.05 228.99ZM1029.02 221.325V218.175H1041.06V221.325H1029.02ZM1060.22 235.15L1048.08 205.4H1051.86L1063.97 235.15H1060.22ZM1075.47 232.42C1073.37 232.42 1071.77 231.778 1070.67 230.495C1069.6 229.188 1069.06 227.298 1069.06 224.825V214.64H1072.77V224.37C1072.77 225.793 1073.08 226.913 1073.68 227.73C1074.31 228.523 1075.27 228.92 1076.55 228.92C1077.84 228.92 1078.91 228.488 1079.77 227.625C1080.64 226.762 1081.07 225.513 1081.07 223.88V214.64H1084.78V232H1081.56L1081.24 229.41H1081.07C1080.6 230.25 1079.88 230.962 1078.9 231.545C1077.92 232.128 1076.77 232.42 1075.47 232.42ZM1097.99 232.42C1096.1 232.42 1094.45 231.907 1093.02 230.88C1091.62 229.853 1090.54 228.395 1089.77 226.505C1089 224.592 1088.61 222.34 1088.61 219.75C1088.61 217.137 1089 214.885 1089.77 212.995C1090.54 211.105 1091.62 209.647 1093.02 208.62C1094.45 207.593 1096.1 207.08 1097.99 207.08C1099.91 207.08 1101.56 207.593 1102.96 208.62C1104.36 209.647 1105.45 211.105 1106.22 212.995C1106.99 214.885 1107.37 217.137 1107.37 219.75C1107.37 222.34 1106.99 224.592 1106.22 226.505C1105.45 228.395 1104.36 229.853 1102.96 230.88C1101.56 231.907 1099.91 232.42 1097.99 232.42ZM1092.39 219.75C1092.39 221.057 1092.51 222.247 1092.74 223.32C1092.98 224.393 1093.3 225.327 1093.72 226.12L1099.85 210.965C1099.27 210.685 1098.65 210.545 1097.99 210.545C1096.36 210.545 1095.02 211.373 1093.97 213.03C1092.92 214.663 1092.39 216.903 1092.39 219.75ZM1097.99 228.99C1099.09 228.99 1100.06 228.617 1100.9 227.87C1101.74 227.123 1102.39 226.062 1102.86 224.685C1103.35 223.285 1103.59 221.64 1103.59 219.75C1103.59 218.443 1103.48 217.253 1103.24 216.18C1103.01 215.107 1102.68 214.185 1102.26 213.415L1096.14 228.57C1096.72 228.85 1097.34 228.99 1097.99 228.99ZM1110.79 232V228.675H1116.85V211.875L1111.07 212.925V209.915L1118.28 207.5H1120.56V228.675H1127.07V232H1110.79ZM1135.07 232L1144.34 210.86H1131.53V207.5H1148.16V210.37L1138.95 232H1135.07ZM1153.39 232V207.5H1169.11V210.965H1157.1V218.455H1167.18V221.71H1157.1V232H1153.39ZM1177.25 238.475V235.15H1182.15C1182.9 235.15 1183.27 234.777 1183.27 234.03V207.99C1183.27 207.243 1182.9 206.87 1182.15 206.87H1177.25V203.615H1182.78C1184.06 203.615 1185.04 203.965 1185.72 204.665C1186.42 205.342 1186.77 206.322 1186.77 207.605V234.485C1186.77 235.768 1186.42 236.748 1185.72 237.425C1185.04 238.125 1184.06 238.475 1182.78 238.475H1177.25ZM1201.07 228.465L1201.98 221.36L1196.17 225.455L1194.56 222.515L1201 219.75L1194.56 216.985L1196.17 214.045L1201.98 218.14L1201.07 211.035H1204.82L1203.91 218.14L1209.72 214.045L1211.33 216.985L1204.85 219.75L1211.33 222.515L1209.72 225.455L1203.91 221.36L1204.82 228.465H1201.07ZM1225.14 238.475C1223.9 237.075 1222.77 235.535 1221.74 233.855C1220.74 232.198 1219.93 230.32 1219.33 228.22C1218.74 226.12 1218.45 223.728 1218.45 221.045C1218.45 218.338 1218.74 215.947 1219.33 213.87C1219.93 211.77 1220.74 209.892 1221.74 208.235C1222.77 206.555 1223.9 205.015 1225.14 203.615H1228.92V204.07C1227.56 205.633 1226.39 207.255 1225.38 208.935C1224.38 210.592 1223.6 212.412 1223.04 214.395C1222.48 216.355 1222.2 218.572 1222.2 221.045C1222.2 223.495 1222.48 225.712 1223.04 227.695C1223.6 229.678 1224.38 231.498 1225.38 233.155C1226.39 234.835 1227.56 236.457 1228.92 238.02V238.475H1225.14ZM1241.75 224.3L1241.54 218.91H1242.87C1244.83 218.91 1246.31 218.548 1247.31 217.825C1248.34 217.078 1248.85 215.923 1248.85 214.36C1248.85 213.17 1248.47 212.213 1247.7 211.49C1246.95 210.767 1245.91 210.405 1244.58 210.405C1243.32 210.405 1242.31 210.755 1241.54 211.455C1240.77 212.132 1240.33 213.053 1240.21 214.22H1236.71C1236.76 212.82 1237.09 211.583 1237.72 210.51C1238.35 209.437 1239.25 208.597 1240.42 207.99C1241.59 207.383 1242.97 207.08 1244.58 207.08C1247.08 207.08 1249.02 207.733 1250.39 209.04C1251.77 210.323 1252.46 212.073 1252.46 214.29C1252.46 215.853 1252.11 217.16 1251.41 218.21C1250.71 219.237 1249.79 220.03 1248.64 220.59C1247.52 221.127 1246.32 221.453 1245.04 221.57L1244.93 224.3H1241.75ZM1243.25 232.21C1242.39 232.21 1241.66 231.93 1241.05 231.37C1240.44 230.787 1240.14 230.087 1240.14 229.27C1240.14 228.453 1240.44 227.765 1241.05 227.205C1241.66 226.645 1242.39 226.365 1243.25 226.365C1244.14 226.365 1244.88 226.645 1245.46 227.205C1246.07 227.765 1246.37 228.453 1246.37 229.27C1246.37 230.087 1246.07 230.787 1245.46 231.37C1244.88 231.93 1244.14 232.21 1243.25 232.21ZM1265.88 232.21C1265.02 232.21 1264.29 231.93 1263.68 231.37C1263.07 230.787 1262.77 230.087 1262.77 229.27C1262.77 228.453 1263.07 227.765 1263.68 227.205C1264.29 226.645 1265.02 226.365 1265.88 226.365C1266.77 226.365 1267.51 226.645 1268.09 227.205C1268.7 227.765 1269 228.453 1269 229.27C1269 230.087 1268.7 230.787 1268.09 231.37C1267.51 231.93 1266.77 232.21 1265.88 232.21ZM1265.88 218.63C1265.02 218.63 1264.29 218.35 1263.68 217.79C1263.07 217.207 1262.77 216.507 1262.77 215.69C1262.77 214.873 1263.07 214.185 1263.68 213.625C1264.29 213.065 1265.02 212.785 1265.88 212.785C1266.77 212.785 1267.51 213.065 1268.09 213.625C1268.7 214.185 1269 214.873 1269 215.69C1269 216.507 1268.7 217.207 1268.09 217.79C1267.51 218.35 1266.77 218.63 1265.88 218.63ZM1291.07 235.15L1278.93 205.4H1282.71L1294.82 235.15H1291.07ZM1307.86 232.21C1306.99 232.21 1306.26 231.93 1305.65 231.37C1305.05 230.787 1304.74 230.087 1304.74 229.27C1304.74 228.453 1305.05 227.765 1305.65 227.205C1306.26 226.645 1306.99 226.365 1307.86 226.365C1308.74 226.365 1309.48 226.645 1310.06 227.205C1310.67 227.765 1310.97 228.453 1310.97 229.27C1310.97 230.087 1310.67 230.787 1310.06 231.37C1309.48 231.93 1308.74 232.21 1307.86 232.21ZM1329.09 232.42C1327.48 232.42 1326.03 232.047 1324.75 231.3C1323.49 230.553 1322.5 229.503 1321.77 228.15C1321.05 226.773 1320.69 225.163 1320.69 223.32C1320.69 221.477 1321.05 219.878 1321.77 218.525C1322.52 217.172 1323.52 216.122 1324.78 215.375C1326.04 214.605 1327.48 214.22 1329.09 214.22C1331.31 214.22 1333.09 214.78 1334.44 215.9C1335.82 216.997 1336.7 218.513 1337.07 220.45H1333.18C1332.95 219.61 1332.47 218.945 1331.75 218.455C1331.05 217.965 1330.15 217.72 1329.05 217.72C1328.26 217.72 1327.5 217.93 1326.78 218.35C1326.08 218.77 1325.51 219.4 1325.06 220.24C1324.64 221.057 1324.43 222.083 1324.43 223.32C1324.43 224.533 1324.64 225.56 1325.06 226.4C1325.51 227.24 1326.08 227.882 1326.78 228.325C1327.5 228.745 1328.26 228.955 1329.05 228.955C1330.17 228.955 1331.07 228.71 1331.75 228.22C1332.43 227.73 1332.9 227.053 1333.18 226.19H1337.07C1336.6 228.103 1335.69 229.62 1334.34 230.74C1332.99 231.86 1331.24 232.42 1329.09 232.42ZM1349.83 232.42C1348.17 232.42 1346.69 232.047 1345.39 231.3C1344.08 230.553 1343.05 229.503 1342.31 228.15C1341.56 226.773 1341.19 225.163 1341.19 223.32C1341.19 221.477 1341.56 219.878 1342.31 218.525C1343.05 217.148 1344.08 216.087 1345.39 215.34C1346.69 214.593 1348.19 214.22 1349.87 214.22C1351.55 214.22 1353.03 214.593 1354.31 215.34C1355.62 216.087 1356.63 217.148 1357.36 218.525C1358.1 219.878 1358.48 221.477 1358.48 223.32C1358.48 225.163 1358.1 226.773 1357.36 228.15C1356.61 229.503 1355.58 230.553 1354.28 231.3C1352.99 232.047 1351.51 232.42 1349.83 232.42ZM1349.83 228.885C1350.72 228.885 1351.53 228.687 1352.28 228.29C1353.03 227.893 1353.62 227.287 1354.07 226.47C1354.53 225.63 1354.77 224.58 1354.77 223.32C1354.77 222.037 1354.53 220.987 1354.07 220.17C1353.62 219.353 1353.03 218.747 1352.28 218.35C1351.56 217.953 1350.75 217.755 1349.87 217.755C1348.98 217.755 1348.16 217.953 1347.42 218.35C1346.67 218.747 1346.06 219.353 1345.6 220.17C1345.15 220.987 1344.93 222.037 1344.93 223.32C1344.93 225.233 1345.41 226.645 1346.37 227.555C1347.35 228.442 1348.5 228.885 1349.83 228.885ZM1361.19 232V214.64H1364.27L1364.59 216.67H1364.76C1365.06 215.947 1365.53 215.363 1366.16 214.92C1366.79 214.453 1367.54 214.22 1368.4 214.22C1369.24 214.22 1369.98 214.43 1370.61 214.85C1371.24 215.27 1371.7 215.877 1372.01 216.67H1372.15C1372.45 215.97 1372.93 215.387 1373.58 214.92C1374.23 214.453 1375.04 214.22 1376 214.22C1377.28 214.22 1378.25 214.64 1378.9 215.48C1379.58 216.32 1379.92 217.498 1379.92 219.015V232H1376.35V219.75C1376.35 219.05 1376.19 218.502 1375.89 218.105C1375.61 217.685 1375.16 217.475 1374.53 217.475C1373.9 217.475 1373.37 217.72 1372.95 218.21C1372.55 218.7 1372.36 219.388 1372.36 220.275V232H1368.75V219.75C1368.75 219.05 1368.61 218.502 1368.33 218.105C1368.05 217.685 1367.6 217.475 1366.97 217.475C1366.34 217.475 1365.81 217.72 1365.39 218.21C1364.97 218.7 1364.76 219.388 1364.76 220.275V232H1361.19ZM1389.95 241.45V206.8H1393.66V241.45H1389.95ZM1416.99 235.15L1404.84 205.4H1408.62L1420.73 235.15H1416.99ZM1433.78 232.21C1432.91 232.21 1432.18 231.93 1431.57 231.37C1430.96 230.787 1430.66 230.087 1430.66 229.27C1430.66 228.453 1430.96 227.765 1431.57 227.205C1432.18 226.645 1432.91 226.365 1433.78 226.365C1434.66 226.365 1435.4 226.645 1435.98 227.205C1436.59 227.765 1436.89 228.453 1436.89 229.27C1436.89 230.087 1436.59 230.787 1435.98 231.37C1435.4 231.93 1434.66 232.21 1433.78 232.21ZM1446.99 232V214.64H1450.21L1450.53 217.23H1450.7C1451.17 216.39 1451.89 215.678 1452.87 215.095C1453.85 214.512 1454.98 214.22 1456.27 214.22C1458.39 214.22 1459.99 214.862 1461.06 216.145C1462.14 217.428 1462.67 219.318 1462.67 221.815V232H1458.96V222.27C1458.96 220.823 1458.66 219.703 1458.05 218.91C1457.45 218.117 1456.49 217.72 1455.18 217.72C1453.9 217.72 1452.83 218.152 1451.96 219.015C1451.12 219.878 1450.7 221.127 1450.7 222.76V232H1446.99ZM1475.96 232.42C1474.28 232.42 1472.8 232.047 1471.51 231.3C1470.23 230.53 1469.23 229.468 1468.5 228.115C1467.78 226.762 1467.42 225.187 1467.42 223.39C1467.42 221.57 1467.77 219.972 1468.47 218.595C1469.19 217.218 1470.19 216.145 1471.48 215.375C1472.78 214.605 1474.29 214.22 1475.99 214.22C1477.67 214.22 1479.12 214.605 1480.33 215.375C1481.55 216.122 1482.48 217.125 1483.13 218.385C1483.81 219.645 1484.15 221.033 1484.15 222.55C1484.15 222.783 1484.15 223.04 1484.15 223.32C1484.15 223.577 1484.14 223.868 1484.11 224.195H1471.06C1471.17 225.805 1471.7 227.03 1472.63 227.87C1473.57 228.687 1474.66 229.095 1475.92 229.095C1477.02 229.095 1477.88 228.873 1478.51 228.43C1479.17 227.963 1479.64 227.333 1479.95 226.54H1483.69C1483.27 228.197 1482.4 229.597 1481.07 230.74C1479.74 231.86 1478.03 232.42 1475.96 232.42ZM1475.96 217.44C1474.81 217.44 1473.8 217.79 1472.91 218.49C1472.03 219.167 1471.45 220.123 1471.2 221.36H1480.44C1480.34 220.193 1479.89 219.248 1479.07 218.525C1478.26 217.802 1477.22 217.44 1475.96 217.44ZM1498.62 232C1496.92 232 1495.57 231.592 1494.56 230.775C1493.56 229.935 1493.06 228.453 1493.06 226.33V217.79H1488.68V214.64H1491.27C1492.46 214.64 1493.16 214.057 1493.37 212.89L1493.9 210.09H1496.77V214.64H1503.63V217.79H1496.77V226.26C1496.77 227.17 1496.97 227.812 1497.36 228.185C1497.78 228.535 1498.5 228.71 1499.5 228.71H1503.56V232H1498.62ZM1512.72 238.475V238.02C1514.07 236.457 1515.25 234.835 1516.25 233.155C1517.25 231.498 1518.04 229.678 1518.6 227.695C1519.16 225.712 1519.44 223.495 1519.44 221.045C1519.44 218.572 1519.16 216.355 1518.6 214.395C1518.04 212.412 1517.25 210.592 1516.25 208.935C1515.25 207.255 1514.07 205.633 1512.72 204.07V203.615H1516.5C1517.73 205.015 1518.85 206.555 1519.86 208.235C1520.88 209.892 1521.69 211.77 1522.27 213.87C1522.88 215.947 1523.18 218.338 1523.18 221.045C1523.18 223.728 1522.88 226.12 1522.27 228.22C1521.69 230.32 1520.88 232.198 1519.86 233.855C1518.85 235.535 1517.73 237.075 1516.5 238.475H1512.72ZM1530.76 235.15L1542.87 205.4H1546.65L1534.51 235.15H1530.76Z" fill="#383838"/>
<path d="M439.45 377.825L443.265 367.5H446.59L444.385 377.825H439.45ZM447.64 377.825L451.455 367.5H454.78L452.575 377.825H447.64ZM466.631 392V370.825H460.051V367.5H476.921V370.825H470.341V392H466.631ZM481.528 392V366.8H485.238V377.23C485.704 376.367 486.451 375.655 487.478 375.095C488.504 374.512 489.659 374.22 490.943 374.22C493.089 374.22 494.723 374.873 495.843 376.18C496.963 377.463 497.523 379.318 497.523 381.745V392H493.813V382.27C493.813 380.823 493.463 379.703 492.763 378.91C492.063 378.117 491.094 377.72 489.858 377.72C488.574 377.72 487.478 378.152 486.568 379.015C485.681 379.878 485.238 381.127 485.238 382.76V392H481.528ZM510.669 392.42C508.989 392.42 507.507 392.047 506.224 391.3C504.941 390.53 503.937 389.468 503.214 388.115C502.491 386.762 502.129 385.187 502.129 383.39C502.129 381.57 502.479 379.972 503.179 378.595C503.902 377.218 504.906 376.145 506.189 375.375C507.496 374.605 509.001 374.22 510.704 374.22C512.384 374.22 513.831 374.605 515.044 375.375C516.257 376.122 517.191 377.125 517.844 378.385C518.521 379.645 518.859 381.033 518.859 382.55C518.859 382.783 518.859 383.04 518.859 383.32C518.859 383.577 518.847 383.868 518.824 384.195H505.769C505.886 385.805 506.411 387.03 507.344 387.87C508.277 388.687 509.374 389.095 510.634 389.095C511.731 389.095 512.594 388.873 513.224 388.43C513.877 387.963 514.356 387.333 514.659 386.54H518.404C517.984 388.197 517.109 389.597 515.779 390.74C514.449 391.86 512.746 392.42 510.669 392.42ZM510.669 377.44C509.526 377.44 508.511 377.79 507.624 378.49C506.737 379.167 506.166 380.123 505.909 381.36H515.149C515.056 380.193 514.601 379.248 513.784 378.525C512.967 377.802 511.929 377.44 510.669 377.44ZM552.362 392.42C550.705 392.42 549.223 392.082 547.917 391.405C546.633 390.728 545.618 389.702 544.872 388.325C544.125 386.925 543.752 385.163 543.752 383.04V367.5H547.462V383.25C547.462 385.117 547.905 386.563 548.792 387.59C549.678 388.593 550.892 389.095 552.432 389.095C553.972 389.095 555.185 388.593 556.072 387.59C556.958 386.563 557.402 385.117 557.402 383.25V367.5H561.112V383.04C561.112 385.163 560.727 386.925 559.957 388.325C559.187 389.702 558.137 390.728 556.807 391.405C555.5 392.082 554.018 392.42 552.362 392.42ZM565.543 392V367.5H573.558C575.471 367.5 577.046 367.827 578.283 368.48C579.543 369.133 580.476 370.02 581.083 371.14C581.713 372.237 582.028 373.485 582.028 374.885C582.028 376.472 581.62 377.883 580.803 379.12C580.01 380.333 578.785 381.22 577.128 381.78L582.273 392H577.968L573.278 382.305H569.253V392H565.543ZM569.253 378.945H573.348C575.028 378.945 576.253 378.572 577.023 377.825C577.816 377.078 578.213 376.098 578.213 374.885C578.213 373.648 577.828 372.668 577.058 371.945C576.288 371.198 575.04 370.825 573.313 370.825H569.253V378.945ZM586.739 392V367.5H590.449V388.675H602.524V392H586.739ZM636.027 371.98C635.21 371.98 634.522 371.723 633.962 371.21C633.425 370.673 633.157 370.02 633.157 369.25C633.157 368.48 633.425 367.838 633.962 367.325C634.522 366.812 635.21 366.555 636.027 366.555C636.867 366.555 637.555 366.812 638.092 367.325C638.652 367.838 638.932 368.48 638.932 369.25C638.932 370.02 638.652 370.673 638.092 371.21C637.555 371.723 636.867 371.98 636.027 371.98ZM629.062 392V388.78H634.522V379.015C634.522 378.245 634.149 377.86 633.402 377.86H629.552V374.64H634.067C635.514 374.64 636.564 374.978 637.217 375.655C637.894 376.308 638.232 377.358 638.232 378.805V388.78H643.692V392H629.062ZM657.503 392.42C655.217 392.42 653.397 391.883 652.043 390.81C650.69 389.737 649.92 388.313 649.733 386.54H653.548C653.688 387.357 654.097 388.022 654.773 388.535C655.473 389.048 656.395 389.305 657.538 389.305C658.635 389.305 659.475 389.083 660.058 388.64C660.665 388.173 660.968 387.637 660.968 387.03C660.968 386.143 660.607 385.537 659.883 385.21C659.183 384.883 658.145 384.638 656.768 384.475C655.578 384.335 654.493 384.067 653.513 383.67C652.557 383.25 651.798 382.69 651.238 381.99C650.678 381.267 650.398 380.368 650.398 379.295C650.398 377.778 650.993 376.553 652.183 375.62C653.373 374.687 655.03 374.22 657.153 374.22C659.277 374.22 660.922 374.698 662.088 375.655C663.255 376.612 663.932 377.918 664.118 379.575H660.548C660.455 378.875 660.093 378.327 659.463 377.93C658.833 377.51 658.052 377.3 657.118 377.3C656.162 377.3 655.403 377.487 654.843 377.86C654.283 378.21 654.003 378.677 654.003 379.26C654.003 380.52 655.357 381.29 658.063 381.57C659.347 381.71 660.49 381.955 661.493 382.305C662.497 382.632 663.29 383.157 663.873 383.88C664.457 384.58 664.748 385.572 664.748 386.855C664.772 387.905 664.468 388.85 663.838 389.69C663.232 390.53 662.38 391.195 661.283 391.685C660.21 392.175 658.95 392.42 657.503 392.42ZM691.391 392V366.8H695.101V377.23C695.568 376.367 696.314 375.655 697.341 375.095C698.368 374.512 699.523 374.22 700.806 374.22C702.953 374.22 704.586 374.873 705.706 376.18C706.826 377.463 707.386 379.318 707.386 381.745V392H703.676V382.27C703.676 380.823 703.326 379.703 702.626 378.91C701.926 378.117 700.958 377.72 699.721 377.72C698.438 377.72 697.341 378.152 696.431 379.015C695.544 379.878 695.101 381.127 695.101 382.76V392H691.391ZM722.212 392C720.509 392 719.156 391.592 718.152 390.775C717.149 389.935 716.647 388.453 716.647 386.33V377.79H712.272V374.64H714.862C716.052 374.64 716.752 374.057 716.962 372.89L717.487 370.09H720.357V374.64H727.217V377.79H720.357V386.26C720.357 387.17 720.556 387.812 720.952 388.185C721.372 388.535 722.084 388.71 723.087 388.71H727.147V392H722.212ZM743.199 392C741.495 392 740.142 391.592 739.139 390.775C738.135 389.935 737.634 388.453 737.634 386.33V377.79H733.259V374.64H735.849C737.039 374.64 737.739 374.057 737.949 372.89L738.474 370.09H741.344V374.64H748.204V377.79H741.344V386.26C741.344 387.17 741.542 387.812 741.939 388.185C742.359 388.535 743.07 388.71 744.074 388.71H748.134V392H743.199ZM754.21 399.7V374.64H757.43L757.71 377.3H757.92C758.387 376.437 759.087 375.713 760.02 375.13C760.977 374.523 762.108 374.22 763.415 374.22C764.768 374.22 766.005 374.57 767.125 375.27C768.245 375.947 769.132 376.962 769.785 378.315C770.462 379.645 770.8 381.313 770.8 383.32C770.8 385.303 770.45 386.972 769.75 388.325C769.073 389.678 768.152 390.705 766.985 391.405C765.818 392.082 764.512 392.42 763.065 392.42C761.782 392.42 760.708 392.163 759.845 391.65C758.982 391.137 758.34 390.553 757.92 389.9V399.7H754.21ZM762.435 388.885C763.742 388.885 764.827 388.418 765.69 387.485C766.577 386.552 767.02 385.152 767.02 383.285C767.02 381.418 766.577 380.03 765.69 379.12C764.827 378.21 763.742 377.755 762.435 377.755C761.105 377.755 759.997 378.222 759.11 379.155C758.247 380.065 757.815 381.453 757.815 383.32C757.815 385.163 758.247 386.552 759.11 387.485C759.997 388.418 761.105 388.885 762.435 388.885ZM783.421 392.42C781.135 392.42 779.315 391.883 777.961 390.81C776.608 389.737 775.838 388.313 775.651 386.54H779.466C779.606 387.357 780.015 388.022 780.691 388.535C781.391 389.048 782.313 389.305 783.456 389.305C784.553 389.305 785.393 389.083 785.976 388.64C786.583 388.173 786.886 387.637 786.886 387.03C786.886 386.143 786.525 385.537 785.801 385.21C785.101 384.883 784.063 384.638 782.686 384.475C781.496 384.335 780.411 384.067 779.431 383.67C778.475 383.25 777.716 382.69 777.156 381.99C776.596 381.267 776.316 380.368 776.316 379.295C776.316 377.778 776.911 376.553 778.101 375.62C779.291 374.687 780.948 374.22 783.071 374.22C785.195 374.22 786.84 374.698 788.006 375.655C789.173 376.612 789.85 377.918 790.036 379.575H786.466C786.373 378.875 786.011 378.327 785.381 377.93C784.751 377.51 783.97 377.3 783.036 377.3C782.08 377.3 781.321 377.487 780.761 377.86C780.201 378.21 779.921 378.677 779.921 379.26C779.921 380.52 781.275 381.29 783.981 381.57C785.265 381.71 786.408 381.955 787.411 382.305C788.415 382.632 789.208 383.157 789.791 383.88C790.375 384.58 790.666 385.572 790.666 386.855C790.69 387.905 790.386 388.85 789.756 389.69C789.15 390.53 788.298 391.195 787.201 391.685C786.128 392.175 784.868 392.42 783.421 392.42ZM804.268 392.21C803.404 392.21 802.669 391.93 802.063 391.37C801.456 390.787 801.153 390.087 801.153 389.27C801.153 388.453 801.456 387.765 802.063 387.205C802.669 386.645 803.404 386.365 804.268 386.365C805.154 386.365 805.889 386.645 806.473 387.205C807.079 387.765 807.383 388.453 807.383 389.27C807.383 390.087 807.079 390.787 806.473 391.37C805.889 391.93 805.154 392.21 804.268 392.21ZM804.268 378.63C803.404 378.63 802.669 378.35 802.063 377.79C801.456 377.207 801.153 376.507 801.153 375.69C801.153 374.873 801.456 374.185 802.063 373.625C802.669 373.065 803.404 372.785 804.268 372.785C805.154 372.785 805.889 373.065 806.473 373.625C807.079 374.185 807.383 374.873 807.383 375.69C807.383 376.507 807.079 377.207 806.473 377.79C805.889 378.35 805.154 378.63 804.268 378.63ZM817.309 395.15L829.419 365.4H833.199L821.054 395.15H817.309ZM838.295 395.15L850.405 365.4H854.185L842.04 395.15H838.295ZM1218.53 396.375L1221.89 386.575H1226.76L1222.17 396.375H1218.53ZM1267.86 392C1266.15 392 1264.8 391.592 1263.8 390.775C1262.79 389.935 1262.29 388.453 1262.29 386.33V377.79H1257.92V374.64H1260.51C1261.7 374.64 1262.4 374.057 1262.61 372.89L1263.13 370.09H1266V374.64H1272.86V377.79H1266V386.26C1266 387.17 1266.2 387.812 1266.6 388.185C1267.02 388.535 1267.73 388.71 1268.73 388.71H1272.79V392H1267.86ZM1279.15 392V388.78H1283.38V379.015C1283.38 378.245 1283.01 377.86 1282.26 377.86H1279.5V374.64H1283.66C1284.62 374.64 1285.4 374.92 1286.01 375.48C1286.61 376.017 1286.92 376.775 1286.92 377.755V378.175H1287.09C1287.35 376.868 1287.9 375.888 1288.74 375.235C1289.6 374.558 1290.85 374.22 1292.48 374.22H1295.18V378.14H1291.4C1290.02 378.14 1288.96 378.618 1288.21 379.575C1287.47 380.532 1287.09 381.675 1287.09 383.005V388.78H1292.48V392H1279.15ZM1302.44 399.7L1306.57 390.565H1305.56L1298.8 374.64H1302.83L1308.01 387.345L1313.5 374.64H1317.39L1306.36 399.7H1302.44ZM1349.56 371.98C1348.75 371.98 1348.06 371.723 1347.5 371.21C1346.96 370.673 1346.69 370.02 1346.69 369.25C1346.69 368.48 1346.96 367.838 1347.5 367.325C1348.06 366.812 1348.75 366.555 1349.56 366.555C1350.4 366.555 1351.09 366.812 1351.63 367.325C1352.19 367.838 1352.47 368.48 1352.47 369.25C1352.47 370.02 1352.19 370.673 1351.63 371.21C1351.09 371.723 1350.4 371.98 1349.56 371.98ZM1342.6 392V388.78H1348.06V379.015C1348.06 378.245 1347.68 377.86 1346.94 377.86H1343.09V374.64H1347.6C1349.05 374.64 1350.1 374.978 1350.75 375.655C1351.43 376.308 1351.77 377.358 1351.77 378.805V388.78H1357.23V392H1342.6ZM1372.79 392C1371.09 392 1369.73 391.592 1368.73 390.775C1367.73 389.935 1367.22 388.453 1367.22 386.33V377.79H1362.85V374.64H1365.44C1366.63 374.64 1367.33 374.057 1367.54 372.89L1368.06 370.09H1370.93V374.64H1377.79V377.79H1370.93V386.26C1370.93 387.17 1371.13 387.812 1371.53 388.185C1371.95 388.535 1372.66 388.71 1373.66 388.71H1377.72V392H1372.79ZM1390.13 383.075L1389.57 367.5H1394.19L1393.6 383.075H1390.13ZM1391.92 392.21C1391.06 392.21 1390.32 391.93 1389.71 391.37C1389.11 390.787 1388.8 390.087 1388.8 389.27C1388.8 388.453 1389.11 387.765 1389.71 387.205C1390.32 386.645 1391.06 386.365 1391.92 386.365C1392.81 386.365 1393.54 386.645 1394.12 387.205C1394.73 387.765 1395.03 388.453 1395.03 389.27C1395.03 390.087 1394.73 390.787 1394.12 391.37C1393.54 391.93 1392.81 392.21 1391.92 392.21ZM1405.14 377.825L1407.34 367.5H1412.28L1408.46 377.825H1405.14ZM1413.33 377.825L1415.53 367.5H1420.47L1416.65 377.825H1413.33Z" fill="#2D2929"/>
<path d="M860.787 392L857.007 374.64H860.647L862.747 386.82L865.232 374.64H869.222L871.707 386.82L873.807 374.64H877.447L873.667 392H869.852L867.227 379.47L864.602 392H860.787ZM881.773 392L877.993 374.64H881.633L883.733 386.82L886.218 374.64H890.208L892.693 386.82L894.793 374.64H898.433L894.653 392H890.838L888.213 379.47L885.588 392H881.773ZM902.759 392L898.979 374.64H902.619L904.719 386.82L907.204 374.64H911.194L913.679 386.82L915.779 374.64H919.419L915.639 392H911.824L909.199 379.47L906.574 392H902.759ZM930.186 392.21C929.322 392.21 928.587 391.93 927.981 391.37C927.374 390.787 927.071 390.087 927.071 389.27C927.071 388.453 927.374 387.765 927.981 387.205C928.587 386.645 929.322 386.365 930.186 386.365C931.072 386.365 931.807 386.645 932.391 387.205C932.997 387.765 933.301 388.453 933.301 389.27C933.301 390.087 932.997 390.787 932.391 391.37C931.807 391.93 931.072 392.21 930.186 392.21ZM943.367 392V388.78H947.602V379.015C947.602 378.245 947.229 377.86 946.482 377.86H943.717V374.64H947.882C948.839 374.64 949.62 374.92 950.227 375.48C950.834 376.017 951.137 376.775 951.137 377.755V378.175H951.312C951.569 376.868 952.117 375.888 952.957 375.235C953.82 374.558 955.069 374.22 956.702 374.22H959.397V378.14H955.617C954.24 378.14 953.179 378.618 952.432 379.575C951.685 380.532 951.312 381.675 951.312 383.005V388.78H956.702V392H943.367ZM972.368 392.42C970.688 392.42 969.207 392.047 967.923 391.3C966.64 390.53 965.637 389.468 964.913 388.115C964.19 386.762 963.828 385.187 963.828 383.39C963.828 381.57 964.178 379.972 964.878 378.595C965.602 377.218 966.605 376.145 967.888 375.375C969.195 374.605 970.7 374.22 972.403 374.22C974.083 374.22 975.53 374.605 976.743 375.375C977.957 376.122 978.89 377.125 979.543 378.385C980.22 379.645 980.558 381.033 980.558 382.55C980.558 382.783 980.558 383.04 980.558 383.32C980.558 383.577 980.547 383.868 980.523 384.195H967.468C967.585 385.805 968.11 387.03 969.043 387.87C969.977 388.687 971.073 389.095 972.333 389.095C973.43 389.095 974.293 388.873 974.923 388.43C975.577 387.963 976.055 387.333 976.358 386.54H980.103C979.683 388.197 978.808 389.597 977.478 390.74C976.148 391.86 974.445 392.42 972.368 392.42ZM972.368 377.44C971.225 377.44 970.21 377.79 969.323 378.49C968.437 379.167 967.865 380.123 967.608 381.36H976.848C976.755 380.193 976.3 379.248 975.483 378.525C974.667 377.802 973.628 377.44 972.368 377.44ZM992.76 386.995C991.686 386.995 990.695 386.82 989.785 386.47L988.91 387.52C988.63 387.87 988.548 388.208 988.665 388.535C988.805 388.838 989.12 388.99 989.61 388.99H994.195C996.225 388.99 997.858 389.422 999.095 390.285C1000.35 391.125 1000.98 392.42 1000.98 394.17C1000.98 395.267 1000.7 396.258 1000.14 397.145C999.608 398.055 998.733 398.778 997.52 399.315C996.33 399.852 994.755 400.12 992.795 400.12C990.321 400.12 988.326 399.653 986.81 398.72C985.316 397.81 984.57 396.433 984.57 394.59C984.57 393.937 984.721 393.33 985.025 392.77C985.351 392.233 985.771 391.743 986.285 391.3C985.655 390.833 985.27 390.18 985.13 389.34C985.013 388.477 985.27 387.648 985.9 386.855L987.44 384.895C986.343 383.728 985.795 382.293 985.795 380.59C985.795 379.447 986.063 378.397 986.6 377.44C987.16 376.46 987.953 375.678 988.98 375.095C990.03 374.512 991.29 374.22 992.76 374.22C993.716 374.22 994.603 374.36 995.42 374.64H1001.96V377.09L998.92 377.265V377.58C999.41 378.49 999.655 379.493 999.655 380.59C999.655 381.733 999.375 382.795 998.815 383.775C998.278 384.755 997.496 385.537 996.47 386.12C995.443 386.703 994.206 386.995 992.76 386.995ZM992.76 384.02C993.786 384.02 994.626 383.717 995.28 383.11C995.956 382.503 996.295 381.663 996.295 380.59C996.295 379.563 995.956 378.747 995.28 378.14C994.626 377.533 993.786 377.23 992.76 377.23C991.71 377.23 990.846 377.533 990.17 378.14C989.516 378.747 989.19 379.563 989.19 380.59C989.19 381.663 989.516 382.503 990.17 383.11C990.846 383.717 991.71 384.02 992.76 384.02ZM988.07 394.31C988.07 395.243 988.513 395.932 989.4 396.375C990.31 396.818 991.441 397.04 992.795 397.04C994.241 397.04 995.385 396.795 996.225 396.305C997.065 395.815 997.485 395.127 997.485 394.24C997.485 393.493 997.181 392.898 996.575 392.455C995.968 392.035 994.941 391.825 993.495 391.825H989.4C988.513 392.525 988.07 393.353 988.07 394.31ZM1014.38 392.42C1012.77 392.42 1011.32 392.047 1010.04 391.3C1008.78 390.553 1007.78 389.503 1007.06 388.15C1006.34 386.773 1005.98 385.163 1005.98 383.32C1005.98 381.477 1006.34 379.878 1007.06 378.525C1007.81 377.172 1008.81 376.122 1010.07 375.375C1011.33 374.605 1012.77 374.22 1014.38 374.22C1016.59 374.22 1018.38 374.78 1019.73 375.9C1021.11 376.997 1021.98 378.513 1022.36 380.45H1018.47C1018.24 379.61 1017.76 378.945 1017.04 378.455C1016.34 377.965 1015.44 377.72 1014.34 377.72C1013.55 377.72 1012.79 377.93 1012.07 378.35C1011.37 378.77 1010.79 379.4 1010.35 380.24C1009.93 381.057 1009.72 382.083 1009.72 383.32C1009.72 384.533 1009.93 385.56 1010.35 386.4C1010.79 387.24 1011.37 387.882 1012.07 388.325C1012.79 388.745 1013.55 388.955 1014.34 388.955C1015.46 388.955 1016.36 388.71 1017.04 388.22C1017.71 387.73 1018.19 387.053 1018.47 386.19H1022.36C1021.89 388.103 1020.98 389.62 1019.63 390.74C1018.27 391.86 1016.52 392.42 1014.38 392.42ZM1035.12 392.42C1033.46 392.42 1031.98 392.047 1030.67 391.3C1029.37 390.553 1028.34 389.503 1027.59 388.15C1026.85 386.773 1026.47 385.163 1026.47 383.32C1026.47 381.477 1026.85 379.878 1027.59 378.525C1028.34 377.148 1029.37 376.087 1030.67 375.34C1031.98 374.593 1033.47 374.22 1035.15 374.22C1036.83 374.22 1038.31 374.593 1039.6 375.34C1040.9 376.087 1041.92 377.148 1042.64 378.525C1043.39 379.878 1043.76 381.477 1043.76 383.32C1043.76 385.163 1043.39 386.773 1042.64 388.15C1041.9 389.503 1040.87 390.553 1039.56 391.3C1038.28 392.047 1036.8 392.42 1035.12 392.42ZM1035.12 388.885C1036 388.885 1036.82 388.687 1037.57 388.29C1038.31 387.893 1038.91 387.287 1039.35 386.47C1039.82 385.63 1040.05 384.58 1040.05 383.32C1040.05 382.037 1039.82 380.987 1039.35 380.17C1038.91 379.353 1038.31 378.747 1037.57 378.35C1036.84 377.953 1036.04 377.755 1035.15 377.755C1034.27 377.755 1033.45 377.953 1032.7 378.35C1031.96 378.747 1031.35 379.353 1030.88 380.17C1030.44 380.987 1030.22 382.037 1030.22 383.32C1030.22 385.233 1030.7 386.645 1031.65 387.555C1032.63 388.442 1033.79 388.885 1035.12 388.885ZM1055.16 392.42C1053.71 392.42 1052.42 392.082 1051.27 391.405C1050.13 390.705 1049.22 389.678 1048.54 388.325C1047.89 386.972 1047.56 385.303 1047.56 383.32C1047.56 381.337 1047.9 379.668 1048.58 378.315C1049.26 376.962 1050.17 375.947 1051.31 375.27C1052.48 374.57 1053.77 374.22 1055.19 374.22C1056.52 374.22 1057.62 374.477 1058.48 374.99C1059.35 375.48 1059.99 376.11 1060.41 376.88V366.8H1064.12V392H1060.93L1060.62 389.445H1060.41C1059.94 390.355 1059.28 391.078 1058.41 391.615C1057.57 392.152 1056.49 392.42 1055.16 392.42ZM1055.93 388.885C1057.26 388.885 1058.36 388.418 1059.22 387.485C1060.11 386.552 1060.55 385.163 1060.55 383.32C1060.55 381.453 1060.11 380.065 1059.22 379.155C1058.36 378.222 1057.26 377.755 1055.93 377.755C1054.6 377.755 1053.49 378.222 1052.6 379.155C1051.74 380.088 1051.31 381.488 1051.31 383.355C1051.31 385.198 1051.74 386.587 1052.6 387.52C1053.49 388.43 1054.6 388.885 1055.93 388.885ZM1077.3 392.42C1075.62 392.42 1074.14 392.047 1072.85 391.3C1071.57 390.53 1070.57 389.468 1069.84 388.115C1069.12 386.762 1068.76 385.187 1068.76 383.39C1068.76 381.57 1069.11 379.972 1069.81 378.595C1070.53 377.218 1071.54 376.145 1072.82 375.375C1074.13 374.605 1075.63 374.22 1077.33 374.22C1079.01 374.22 1080.46 374.605 1081.67 375.375C1082.89 376.122 1083.82 377.125 1084.47 378.385C1085.15 379.645 1085.49 381.033 1085.49 382.55C1085.49 382.783 1085.49 383.04 1085.49 383.32C1085.49 383.577 1085.48 383.868 1085.45 384.195H1072.4C1072.52 385.805 1073.04 387.03 1073.97 387.87C1074.91 388.687 1076 389.095 1077.26 389.095C1078.36 389.095 1079.22 388.873 1079.85 388.43C1080.51 387.963 1080.99 387.333 1081.29 386.54H1085.03C1084.61 388.197 1083.74 389.597 1082.41 390.74C1081.08 391.86 1079.38 392.42 1077.3 392.42ZM1077.3 377.44C1076.16 377.44 1075.14 377.79 1074.25 378.49C1073.37 379.167 1072.8 380.123 1072.54 381.36H1081.78C1081.69 380.193 1081.23 379.248 1080.41 378.525C1079.6 377.802 1078.56 377.44 1077.3 377.44ZM1099.06 371.98C1098.24 371.98 1097.55 371.723 1096.99 371.21C1096.45 370.673 1096.19 370.02 1096.19 369.25C1096.19 368.48 1096.45 367.838 1096.99 367.325C1097.55 366.812 1098.24 366.555 1099.06 366.555C1099.9 366.555 1100.58 366.812 1101.12 367.325C1101.68 367.838 1101.96 368.48 1101.96 369.25C1101.96 370.02 1101.68 370.673 1101.12 371.21C1100.58 371.723 1099.9 371.98 1099.06 371.98ZM1089.54 399.7V396.48H1096.4C1097.17 396.48 1097.55 396.095 1097.55 395.325V379.015C1097.55 378.245 1097.17 377.86 1096.4 377.86H1092.13V374.64H1097.1C1098.54 374.64 1099.59 374.978 1100.25 375.655C1100.92 376.308 1101.26 377.358 1101.26 378.805V395.535C1101.26 396.982 1100.92 398.032 1100.25 398.685C1099.59 399.362 1098.54 399.7 1097.1 399.7H1089.54ZM1119.2 392.42C1116.92 392.42 1115.1 391.883 1113.74 390.81C1112.39 389.737 1111.62 388.313 1111.43 386.54H1115.25C1115.39 387.357 1115.8 388.022 1116.47 388.535C1117.17 389.048 1118.09 389.305 1119.24 389.305C1120.33 389.305 1121.17 389.083 1121.76 388.64C1122.36 388.173 1122.67 387.637 1122.67 387.03C1122.67 386.143 1122.31 385.537 1121.58 385.21C1120.88 384.883 1119.84 384.638 1118.47 384.475C1117.28 384.335 1116.19 384.067 1115.21 383.67C1114.26 383.25 1113.5 382.69 1112.94 381.99C1112.38 381.267 1112.1 380.368 1112.1 379.295C1112.1 377.778 1112.69 376.553 1113.88 375.62C1115.07 374.687 1116.73 374.22 1118.85 374.22C1120.98 374.22 1122.62 374.698 1123.79 375.655C1124.95 376.612 1125.63 377.918 1125.82 379.575H1122.25C1122.15 378.875 1121.79 378.327 1121.16 377.93C1120.53 377.51 1119.75 377.3 1118.82 377.3C1117.86 377.3 1117.1 377.487 1116.54 377.86C1115.98 378.21 1115.7 378.677 1115.7 379.26C1115.7 380.52 1117.06 381.29 1119.76 381.57C1121.05 381.71 1122.19 381.955 1123.19 382.305C1124.2 382.632 1124.99 383.157 1125.57 383.88C1126.16 384.58 1126.45 385.572 1126.45 386.855C1126.47 387.905 1126.17 388.85 1125.54 389.69C1124.93 390.53 1124.08 391.195 1122.98 391.685C1121.91 392.175 1120.65 392.42 1119.2 392.42ZM1140.05 392.21C1139.19 392.21 1138.45 391.93 1137.84 391.37C1137.24 390.787 1136.93 390.087 1136.93 389.27C1136.93 388.453 1137.24 387.765 1137.84 387.205C1138.45 386.645 1139.19 386.365 1140.05 386.365C1140.94 386.365 1141.67 386.645 1142.25 387.205C1142.86 387.765 1143.16 388.453 1143.16 389.27C1143.16 390.087 1142.86 390.787 1142.25 391.37C1141.67 391.93 1140.94 392.21 1140.05 392.21ZM1161.28 392.42C1159.67 392.42 1158.22 392.047 1156.94 391.3C1155.68 390.553 1154.69 389.503 1153.97 388.15C1153.24 386.773 1152.88 385.163 1152.88 383.32C1152.88 381.477 1153.24 379.878 1153.97 378.525C1154.71 377.172 1155.72 376.122 1156.98 375.375C1158.24 374.605 1159.67 374.22 1161.28 374.22C1163.5 374.22 1165.28 374.78 1166.64 375.9C1168.01 376.997 1168.89 378.513 1169.26 380.45H1165.38C1165.14 379.61 1164.66 378.945 1163.94 378.455C1163.24 377.965 1162.34 377.72 1161.25 377.72C1160.45 377.72 1159.69 377.93 1158.97 378.35C1158.27 378.77 1157.7 379.4 1157.26 380.24C1156.84 381.057 1156.63 382.083 1156.63 383.32C1156.63 384.533 1156.84 385.56 1157.26 386.4C1157.7 387.24 1158.27 387.882 1158.97 388.325C1159.69 388.745 1160.45 388.955 1161.25 388.955C1162.37 388.955 1163.26 388.71 1163.94 388.22C1164.62 387.73 1165.1 387.053 1165.38 386.19H1169.26C1168.79 388.103 1167.88 389.62 1166.53 390.74C1165.18 391.86 1163.43 392.42 1161.28 392.42ZM1182.02 392.42C1180.36 392.42 1178.88 392.047 1177.58 391.3C1176.27 390.553 1175.24 389.503 1174.5 388.15C1173.75 386.773 1173.38 385.163 1173.38 383.32C1173.38 381.477 1173.75 379.878 1174.5 378.525C1175.24 377.148 1176.27 376.087 1177.58 375.34C1178.88 374.593 1180.38 374.22 1182.06 374.22C1183.74 374.22 1185.22 374.593 1186.5 375.34C1187.81 376.087 1188.82 377.148 1189.55 378.525C1190.29 379.878 1190.67 381.477 1190.67 383.32C1190.67 385.163 1190.29 386.773 1189.55 388.15C1188.8 389.503 1187.77 390.553 1186.47 391.3C1185.18 392.047 1183.7 392.42 1182.02 392.42ZM1182.02 388.885C1182.91 388.885 1183.72 388.687 1184.47 388.29C1185.22 387.893 1185.81 387.287 1186.26 386.47C1186.72 385.63 1186.96 384.58 1186.96 383.32C1186.96 382.037 1186.72 380.987 1186.26 380.17C1185.81 379.353 1185.22 378.747 1184.47 378.35C1183.75 377.953 1182.94 377.755 1182.06 377.755C1181.17 377.755 1180.35 377.953 1179.61 378.35C1178.86 378.747 1178.25 379.353 1177.79 380.17C1177.34 380.987 1177.12 382.037 1177.12 383.32C1177.12 385.233 1177.6 386.645 1178.56 387.555C1179.54 388.442 1180.69 388.885 1182.02 388.885ZM1193.38 392V374.64H1196.46L1196.78 376.67H1196.95C1197.26 375.947 1197.72 375.363 1198.35 374.92C1198.98 374.453 1199.73 374.22 1200.59 374.22C1201.43 374.22 1202.17 374.43 1202.8 374.85C1203.43 375.27 1203.89 375.877 1204.2 376.67H1204.34C1204.64 375.97 1205.12 375.387 1205.77 374.92C1206.43 374.453 1207.23 374.22 1208.19 374.22C1209.47 374.22 1210.44 374.64 1211.09 375.48C1211.77 376.32 1212.11 377.498 1212.11 379.015V392H1208.54V379.75C1208.54 379.05 1208.39 378.502 1208.08 378.105C1207.8 377.685 1207.35 377.475 1206.72 377.475C1206.09 377.475 1205.56 377.72 1205.14 378.21C1204.75 378.7 1204.55 379.388 1204.55 380.275V392H1200.94V379.75C1200.94 379.05 1200.8 378.502 1200.52 378.105C1200.24 377.685 1199.79 377.475 1199.16 377.475C1198.53 377.475 1198 377.72 1197.58 378.21C1197.16 378.7 1196.95 379.388 1196.95 380.275V392H1193.38Z" fill="#00D53B"/>
<path d="M929.939 170.061C930.525 170.646 931.475 170.646 932.061 170.061L941.607 160.515C942.192 159.929 942.192 158.979 941.607 158.393C941.021 157.808 940.071 157.808 939.485 158.393L931 166.879L922.515 158.393C921.929 157.808 920.979 157.808 920.393 158.393C919.808 158.979 919.808 159.929 920.393 160.515L929.939 170.061ZM929.5 127L929.5 169L932.5 169L932.5 127L929.5 127Z" fill="#383838"/>
<path d="M929.939 322.061C930.525 322.646 931.475 322.646 932.061 322.061L941.607 312.515C942.192 311.929 942.192 310.979 941.607 310.393C941.021 309.808 940.071 309.808 939.485 310.393L931 318.879L922.515 310.393C921.929 309.808 920.979 309.808 920.393 310.393C919.808 310.979 919.808 311.929 920.393 312.515L929.939 322.061ZM929.5 279L929.5 321L932.5 321L932.5 279L929.5 279Z" fill="#383838"/>
</svg>
