<svg width="825" height="150" viewBox="0 0 825 150" fill="none" xmlns="http://www.w3.org/2000/svg">
<rect x="120" y="75" width="90.1561" height="90.1561" rx="22.539" transform="rotate(-45 120 75)" fill="#00AEEF"/>
<path d="M193.757 75.0879L205.197 81.2824L200.054 89.8917L188.509 83.0673L188.719 95.7713H178.852L178.957 82.9623L167.411 89.8917L162.373 81.2824L173.814 75.0879L162.373 68.7884L167.411 60.179L178.957 67.1085L178.852 54.2995H188.719L188.509 67.1085L200.054 60.179L205.197 68.7884L193.757 75.0879Z" fill="white"/>
<path d="M281.25 101.451V91.8421H293.888V62.7016C293.888 60.4038 292.774 59.2549 290.546 59.2549H282.294V49.6459H294.724C297.578 49.6459 299.911 50.4815 301.721 52.1526C303.532 53.7541 304.437 56.0171 304.437 58.9416V60.1949H304.959C305.725 56.2956 307.361 53.3711 309.868 51.4215C312.445 49.4022 316.17 48.3925 321.044 48.3925H329.086V60.0905H317.806C313.698 60.0905 310.53 61.5179 308.302 64.3728C306.073 67.2276 304.959 70.6395 304.959 74.6085V91.8421H321.044V101.451H281.25Z" fill="#00AEEF"/>
<path d="M367.795 102.704C362.782 102.704 358.36 101.59 354.53 99.3622C350.701 97.0644 347.706 93.8962 345.548 89.8576C343.389 85.819 342.31 81.119 342.31 75.7574C342.31 70.3262 343.355 65.5565 345.443 61.4483C347.602 57.3401 350.596 54.1371 354.426 51.8393C358.325 49.5415 362.816 48.3925 367.899 48.3925C372.913 48.3925 377.23 49.5415 380.851 51.8393C384.471 54.0674 387.257 57.0616 389.206 60.8216C391.226 64.5817 392.235 68.7247 392.235 73.2507C392.235 73.947 392.235 74.7129 392.235 75.5485C392.235 76.3144 392.2 77.1848 392.131 78.1597H353.172C353.521 82.9642 355.087 86.6198 357.873 89.1265C360.658 91.5636 363.93 92.7821 367.69 92.7821C370.963 92.7821 373.539 92.1206 375.419 90.7976C377.369 89.405 378.797 87.525 379.702 85.1575H390.877C389.624 90.1013 387.013 94.2792 383.044 97.6911C379.075 101.033 373.992 102.704 367.795 102.704ZM367.795 58.0016C364.383 58.0016 361.354 59.046 358.708 61.135C356.062 63.1542 354.356 66.0091 353.59 69.6995H381.164C380.885 66.218 379.528 63.398 377.091 61.2394C374.654 59.0809 371.555 58.0016 367.795 58.0016Z" fill="#00AEEF"/>
<path d="M428.646 86.5153C425.443 86.5153 422.484 85.9931 419.768 84.9486L417.157 88.082C416.321 89.1265 416.078 90.1361 416.426 91.111C416.844 92.0162 417.784 92.4688 419.246 92.4688H432.928C438.986 92.4688 443.86 93.7569 447.551 96.3333C451.311 98.84 453.191 102.704 453.191 107.927C453.191 111.199 452.355 114.159 450.684 116.805C449.083 119.52 446.472 121.679 442.851 123.28C439.3 124.882 434.6 125.683 428.751 125.683C421.37 125.683 415.416 124.29 410.89 121.505C406.434 118.789 404.206 114.681 404.206 109.18C404.206 107.23 404.658 105.42 405.564 103.749C406.538 102.147 407.792 100.685 409.324 99.3622C407.444 97.9696 406.295 96.0199 405.877 93.5132C405.529 90.9369 406.295 88.465 408.175 86.0975L412.77 80.2486C409.498 76.767 407.861 72.4848 407.861 67.4017C407.861 63.9898 408.662 60.8564 410.264 58.0016C411.935 55.0771 414.302 52.7445 417.366 51.0037C420.499 49.2629 424.259 48.3925 428.646 48.3925C431.501 48.3925 434.147 48.8103 436.584 49.6459H456.115V56.9571L447.029 57.4793V58.4194C448.491 61.135 449.222 64.1291 449.222 67.4017C449.222 70.8136 448.386 73.9818 446.715 76.9063C445.114 79.8308 442.781 82.1634 439.717 83.9042C436.654 85.645 432.963 86.5153 428.646 86.5153ZM428.646 77.6374C431.71 77.6374 434.217 76.7322 436.166 74.9218C438.186 73.1114 439.195 70.6047 439.195 67.4017C439.195 64.338 438.186 61.9009 436.166 60.0905C434.217 58.2801 431.71 57.3749 428.646 57.3749C425.513 57.3749 422.936 58.2801 420.917 60.0905C418.967 61.9009 417.993 64.338 417.993 67.4017C417.993 70.6047 418.967 73.1114 420.917 74.9218C422.936 76.7322 425.513 77.6374 428.646 77.6374ZM414.65 108.345C414.65 111.13 415.973 113.184 418.619 114.507C421.335 115.83 424.712 116.491 428.751 116.491C433.068 116.491 436.48 115.76 438.986 114.298C441.493 112.836 442.746 110.782 442.746 108.136C442.746 105.907 441.841 104.132 440.031 102.809C438.22 101.556 435.157 100.929 430.839 100.929H418.619C415.973 103.018 414.65 105.49 414.65 108.345Z" fill="#00AEEF"/>
<path d="M493.153 102.704C488.348 102.704 484.031 101.59 480.202 99.3622C476.442 97.134 473.482 94.0006 471.324 89.962C469.165 85.8538 468.086 81.0493 468.086 75.5485C468.086 70.0477 469.165 65.278 471.324 61.2394C473.552 57.2008 476.546 54.0674 480.306 51.8393C484.066 49.5415 488.348 48.3925 493.153 48.3925C499.768 48.3925 505.095 50.0637 509.133 53.406C513.241 56.6786 515.853 61.2046 516.967 66.9839H505.373C504.677 64.4772 503.249 62.4928 501.091 61.0305C499.002 59.5683 496.321 58.8371 493.048 58.8371C490.681 58.8371 488.418 59.4638 486.259 60.7172C484.171 61.9705 482.465 63.8506 481.142 66.3573C479.888 68.7943 479.262 71.8581 479.262 75.5485C479.262 79.1693 479.888 82.233 481.142 84.7397C482.465 87.2465 484.171 89.1613 486.259 90.4843C488.418 91.7376 490.681 92.3643 493.048 92.3643C496.391 92.3643 499.072 91.6332 501.091 90.1709C503.11 88.7087 504.538 86.6894 505.373 84.1131H516.967C515.574 89.8228 512.858 94.3488 508.82 97.6911C504.781 101.033 499.559 102.704 493.153 102.704Z" fill="#00AEEF"/>
<path d="M555.049 102.704C550.105 102.704 545.683 101.59 541.784 99.3622C537.885 97.134 534.821 94.0006 532.593 89.962C530.365 85.8538 529.25 81.0493 529.25 75.5485C529.25 70.0477 530.365 65.278 532.593 61.2394C534.821 57.1312 537.885 53.963 541.784 51.7348C545.683 49.5066 550.14 48.3925 555.153 48.3925C560.166 48.3925 564.588 49.5066 568.418 51.7348C572.317 53.963 575.346 57.1312 577.504 61.2394C579.733 65.278 580.847 70.0477 580.847 75.5485C580.847 81.0493 579.733 85.8538 577.504 89.962C575.276 94.0006 572.213 97.134 568.313 99.3622C564.484 101.59 560.062 102.704 555.049 102.704ZM555.049 92.1554C557.695 92.1554 560.132 91.5636 562.36 90.3798C564.588 89.1961 566.364 87.3857 567.687 84.9486C569.079 82.4419 569.775 79.3086 569.775 75.5485C569.775 71.7188 569.079 68.5854 567.687 66.1484C566.364 63.7113 564.588 61.9009 562.36 60.7172C560.201 59.5335 557.799 58.9416 555.153 58.9416C552.507 58.9416 550.07 59.5335 547.842 60.7172C545.614 61.9009 543.803 63.7113 542.411 66.1484C541.088 68.5854 540.426 71.7188 540.426 75.5485C540.426 81.2582 541.854 85.4709 544.708 88.1865C547.633 90.8324 551.08 92.1554 555.049 92.1554Z" fill="#00AEEF"/>
<path d="M614.855 102.704C610.538 102.704 606.674 101.695 603.262 99.6755C599.85 97.5866 597.134 94.5229 595.115 90.4843C593.165 86.4457 592.191 81.4671 592.191 75.5485C592.191 69.6299 593.2 64.6513 595.219 60.6127C597.239 56.5741 599.954 53.5452 603.366 51.5259C606.848 49.437 610.712 48.3925 614.96 48.3925C618.929 48.3925 622.201 49.1585 624.778 50.6904C627.354 52.1526 629.269 54.0326 630.522 56.3304V26.25H641.593V101.451H632.089L631.149 93.8266H630.522C629.13 96.5421 627.145 98.7007 624.569 100.302C622.062 101.904 618.824 102.704 614.855 102.704ZM617.153 92.1554C621.122 92.1554 624.395 90.7628 626.971 87.9776C629.617 85.1923 630.94 81.0493 630.94 75.5485C630.94 69.9781 629.617 65.835 626.971 63.1194C624.395 60.3342 621.122 58.9416 617.153 58.9416C613.184 58.9416 609.877 60.3342 607.231 63.1194C604.654 65.9047 603.366 70.0825 603.366 75.653C603.366 81.1538 604.654 85.2968 607.231 88.082C609.877 90.7976 613.184 92.1554 617.153 92.1554Z" fill="#00AEEF"/>
<path d="M680.929 102.704C675.915 102.704 671.494 101.59 667.664 99.3622C663.835 97.0644 660.84 93.8962 658.682 89.8576C656.523 85.819 655.444 81.119 655.444 75.7574C655.444 70.3262 656.488 65.5565 658.577 61.4483C660.736 57.3401 663.73 54.1371 667.56 51.8393C671.459 49.5415 675.95 48.3925 681.033 48.3925C686.047 48.3925 690.364 49.5415 693.985 51.8393C697.605 54.0674 700.391 57.0616 702.34 60.8216C704.36 64.5817 705.369 68.7247 705.369 73.2507C705.369 73.947 705.369 74.7129 705.369 75.5485C705.369 76.3144 705.334 77.1848 705.265 78.1597H666.306C666.655 82.9642 668.221 86.6198 671.006 89.1265C673.792 91.5636 677.064 92.7821 680.824 92.7821C684.097 92.7821 686.673 92.1206 688.553 90.7976C690.503 89.405 691.93 87.525 692.836 85.1575H704.011C702.758 90.1013 700.147 94.2792 696.178 97.6911C692.209 101.033 687.126 102.704 680.929 102.704ZM680.929 58.0016C677.517 58.0016 674.488 59.046 671.842 61.135C669.196 63.1542 667.49 66.0091 666.724 69.6995H694.298C694.019 66.218 692.662 63.398 690.225 61.2394C687.787 59.0809 684.689 58.0016 680.929 58.0016Z" fill="#00AEEF"/>
</svg>
